<?xml version="1.0" encoding="UTF-8" standalone="no"?>
<!-- Created with Inkscape (http://www.inkscape.org/) -->

<svg
   xmlns:dc="http://purl.org/dc/elements/1.1/"
   xmlns:cc="http://creativecommons.org/ns#"
   xmlns:rdf="http://www.w3.org/1999/02/22-rdf-syntax-ns#"
   xmlns:svg="http://www.w3.org/2000/svg"
   xmlns="http://www.w3.org/2000/svg"
   xmlns:sodipodi="http://sodipodi.sourceforge.net/DTD/sodipodi-0.dtd"
   xmlns:inkscape="http://www.inkscape.org/namespaces/inkscape"
   width="256mm"
   height="256mm"
   viewBox="0 0 256 256"
   version="1.1"
   id="svg3805"
   inkscape:version="0.92.3 (2405546, 2018-03-11)"
   sodipodi:docname="gameMap.svg">
  <defs
     id="defs3799" />
  <sodipodi:namedview
     id="base"
     pagecolor="#ffffff"
     bordercolor="#666666"
     borderopacity="1.0"
     inkscape:pageopacity="0.0"
     inkscape:pageshadow="2"
     inkscape:zoom="31.678384"
     inkscape:cx="495.57621"
     inkscape:cy="514.42865"
     inkscape:document-units="mm"
     inkscape:current-layer="layer2"
     showgrid="false"
     inkscape:window-width="1858"
     inkscape:window-height="1057"
     inkscape:window-x="1494"
     inkscape:window-y="-8"
     inkscape:window-maximized="1" />
  <metadata
     id="metadata3802">
    <rdf:RDF>
      <cc:Work
         rdf:about="">
        <dc:format>image/svg+xml</dc:format>
        <dc:type
           rdf:resource="http://purl.org/dc/dcmitype/StillImage" />
        <dc:title></dc:title>
      </cc:Work>
    </rdf:RDF>
  </metadata>
  <g
     inkscape:label="Layer 1"
     inkscape:groupmode="layer"
     id="layer1"
     transform="translate(0,-41)">
    <path
       d="M 0.53453906,40.892238 V 296.89223 M 7.1491222,40.892238 V 296.89223 M 13.763705,40.892238 V 296.89223 M 20.378288,40.892238 V 296.89223 M 26.992872,40.892238 V 296.89223 M 33.607455,40.892238 V 296.89223 M 40.222038,40.892238 V 296.89223 M 46.836621,40.892238 V 296.89223 M 53.451204,40.892238 V 296.89223 M 60.065787,40.892238 V 296.89223 M 66.68037,40.892238 V 296.89223 M 73.294954,40.892238 V 296.89223 M 79.909537,40.892238 V 296.89223 M 86.52412,40.892238 V 296.89223 M 93.138703,40.892238 V 296.89223 M 99.753286,40.892238 V 296.89223 M 106.36787,40.892238 V 296.89223 M 112.98245,40.892238 V 296.89223 M 119.59704,40.892238 V 296.89223 M 126.21162,40.892238 V 296.89223 M 132.8262,40.892238 V 296.89223 M 139.44079,40.892238 V 296.89223 M 146.05537,40.892238 V 296.89223 M 152.66995,40.892238 V 296.89223 M 159.28454,40.892238 V 296.89223 M 165.89912,40.892238 V 296.89223 M 172.5137,40.892238 V 296.89223 M 179.12829,40.892238 V 296.89223 M 185.74287,40.892238 V 296.89223 M 192.35745,40.892238 V 296.89223 M 198.97203,40.892238 V 296.89223 M 205.58662,40.892238 V 296.89223 M 212.2012,40.892238 V 296.89223 M 218.81578,40.892238 V 296.89223 M 225.43037,40.892238 V 296.89223 M 232.04495,40.892238 V 296.89223 M 238.65953,40.892238 V 296.89223 M 245.27412,40.892238 V 296.89223 M 251.8887,40.892238 V 296.89223 M 0.53453906,40.892238 H 256.53453 M 0.53453906,47.506821 H 256.53453 M 0.53453906,54.121404 H 256.53453 M 0.53453906,60.735987 H 256.53453 M 0.53453906,67.350571 H 256.53453 M 0.53453906,73.965154 H 256.53453 M 0.53453906,80.579737 H 256.53453 M 0.53453906,87.19432 H 256.53453 M 0.53453906,93.808903 H 256.53453 M 0.53453906,100.42349 H 256.53453 M 0.53453906,107.03807 H 256.53453 M 0.53453906,113.65265 H 256.53453 M 0.53453906,120.26724 H 256.53453 M 0.53453906,126.88182 H 256.53453 M 0.53453906,133.4964 H 256.53453 M 0.53453906,140.11098 H 256.53453 M 0.53453906,146.72557 H 256.53453 M 0.53453906,153.34015 H 256.53453 M 0.53453906,159.95474 H 256.53453 M 0.53453906,166.56932 H 256.53453 M 0.53453906,173.1839 H 256.53453 M 0.53453906,179.79849 H 256.53453 M 0.53453906,186.41307 H 256.53453 M 0.53453906,193.02765 H 256.53453 M 0.53453906,199.64224 H 256.53453 M 0.53453906,206.25682 H 256.53453 M 0.53453906,212.8714 H 256.53453 M 0.53453906,219.48599 H 256.53453 M 0.53453906,226.10057 H 256.53453 M 0.53453906,232.71515 H 256.53453 M 0.53453906,239.32973 H 256.53453 M 0.53453906,245.94432 H 256.53453 M 0.53453906,252.5589 H 256.53453 M 0.53453906,259.17348 H 256.53453 M 0.53453906,265.78807 H 256.53453 M 0.53453906,272.40265 H 256.53453 M 0.53453906,279.01723 H 256.53453 M 0.53453906,285.63182 H 256.53453 M 0.53453906,292.2464 H 256.53453"
       style="fill:#d10000;stroke:#000000;stroke-width:0.26458299px;fill-opacity:1;opacity:0.125"
       id="path3813"
       inkscape:connector-curvature="0" />
  </g>
  <g
     inkscape:groupmode="layer"
     id="layer2"
     inkscape:label="Skeleton">
    <path
       style="opacity:0;fill:#000000;fill-opacity:1;stroke-width:0.26458332"
       id="path4653"
       d="m 128.99026,120.63042 c 0.0229,0.0523 0.0603,0.0965 0.0978,0.13888 0.057,0.061 0.12352,0.11196 0.18989,0.16222 0.085,0.0706 0.17646,0.13256 0.26407,0.1997 0.051,0.0386 0.10329,0.0755 0.15726,0.10982 0,0 -0.0998,0.064 -0.0998,0.064 v 0 c -0.0528,-0.0359 -0.10445,-0.0735 -0.15526,-0.1121 -0.0876,-0.0676 -0.17923,-0.12963 -0.26588,-0.19846 -0.067,-0.0508 -0.13407,-0.10227 -0.19198,-0.16359 -0.0389,-0.0428 -0.0761,-0.088 -0.10364,-0.1392 0,0 0.10754,-0.0612 0.10754,-0.0612 z"
       inkscape:connector-curvature="0" />
    <path
       style="opacity:1;fill:#000000;fill-opacity:1;stroke:#000000;stroke-width:0;stroke-miterlimit:4;stroke-dasharray:none"
       id="path4673"
       d="m 125.22129,119.72628 c 0.0222,-0.007 0.0428,-0.0174 0.0652,-0.0236 0.009,-0.003 0.0184,-0.002 0.0275,-0.004 0.007,-10e-4 0.0141,-0.004 0.0212,-0.006 0.0141,-10e-4 0.0268,-0.007 0.0407,-0.009 0.0159,-10e-4 0.0309,-0.006 0.0466,-0.008 0.0168,-0.002 0.0337,-0.002 0.0506,-0.003 0.0167,-1e-4 0.0335,-4e-5 0.0502,-1e-5 0.0167,3e-5 0.0334,3e-5 0.0501,4e-5 0.0167,0 0.0334,0 0.0501,0 0.0157,-0.002 0.0305,0.003 0.0458,0.006 0.0153,0.002 0.0308,0.002 0.0463,0.002 0.0161,-0.002 0.0313,0.002 0.0469,0.005 0.0149,0.003 0.0301,0.003 0.0452,0.003 0.0171,-0.001 0.0335,0.002 0.0502,0.005 0.0164,0.003 0.0331,0.003 0.0497,0.004 0.015,5.3e-4 0.0295,0.005 0.0445,0.007 0.0162,2.6e-4 0.0318,0.005 0.0478,0.007 0.0163,0.001 0.0321,0.002 0.048,0.006 0.0143,0.004 0.0294,0.003 0.0436,0.006 0.0147,0.003 0.0287,0.008 0.0432,0.0111 0.0166,0.002 0.0324,0.007 0.0489,0.01 0.0166,0.003 0.0335,0.001 0.05,0.004 0.0164,0.004 0.0331,0.005 0.0499,0.006 0.0161,-0.001 0.0313,0.002 0.0469,0.005 0.0149,0.003 0.03,0.003 0.0451,0.003 0.0171,-0.001 0.0335,0.002 0.0502,0.005 0.0164,0.003 0.0331,0.003 0.0497,0.004 0.0167,2.4e-4 0.0333,1.8e-4 0.05,1.6e-4 0.0167,-2e-5 0.0334,-4e-5 0.0501,-4e-5 0.0147,-5.3e-4 0.0289,-0.005 0.0436,-0.007 0.016,-0.001 0.0322,-0.002 0.0482,-0.002 0.0158,0.002 0.0304,-0.002 0.0457,-0.005 0.0148,-0.004 0.0304,-0.001 0.0449,-0.005 0.0146,-0.003 0.0286,-0.008 0.043,-0.0108 0.0155,-0.004 0.0298,-0.0115 0.0451,-0.0164 0.0155,-0.006 0.0302,-0.014 0.0454,-0.0207 -0.21185,0.12087 -0.0463,0.0266 0.0138,-0.009 0.0332,-0.0194 -0.0665,0.0386 -0.0999,0.0575 -0.002,0.001 0.004,-0.003 0.006,-0.004 0.0372,-0.0219 0.0754,-0.0421 0.11192,-0.0651 0.0328,-0.0206 -0.0672,0.0387 -0.10074,0.0581 0.0403,-0.03 0.0867,-0.0502 0.13061,-0.0735 0.004,-0.002 0.008,-0.005 0.0121,-0.007 0.002,-8e-4 0.005,-0.001 0.007,-0.003 0.004,-0.002 0.0151,-0.009 0.0113,-0.007 -0.16342,0.0946 -0.12728,0.0758 -0.0912,0.0512 0.01,-0.007 0.0168,-0.016 0.0231,-0.0259 0.006,-0.0109 0.0116,-0.022 0.0176,-0.0329 0.007,-0.01 0.0133,-0.0203 0.0187,-0.0312 0.007,-0.0127 0.015,-0.0252 0.0212,-0.0385 0.005,-0.0143 0.0105,-0.0286 0.0161,-0.0428 0.006,-0.0148 0.008,-0.0305 0.009,-0.0463 -2.6e-4,-0.0138 -0.005,-0.0271 -0.011,-0.0395 -0.006,-0.0119 -0.0107,-0.0242 -0.0172,-0.0357 -0.005,-0.0107 -0.0128,-0.0197 -0.0226,-0.0265 -0.0128,-0.009 -0.0217,-0.0185 -0.0273,-0.033 -0.005,-0.0127 -0.0111,-0.0247 -0.0179,-0.0364 -0.007,-0.0141 -0.0107,-0.0296 -0.0146,-0.0448 -0.003,-0.0148 -0.009,-0.029 -0.0113,-0.0439 -0.002,-0.0142 -0.006,-0.0278 -0.009,-0.042 -0.002,-0.016 -0.003,-0.0322 -0.002,-0.0483 0.002,-0.0155 0.008,-0.0292 0.0161,-0.0423 0.007,-0.013 0.0158,-0.0249 0.0259,-0.0358 0.009,-0.01 0.0178,-0.0199 0.0274,-0.0292 0.001,-10e-4 0.003,-0.003 0.004,-0.004 0,0 0.11382,-0.0498 0.11382,-0.0498 v 0 c -0.001,0.002 -0.002,0.004 -0.003,0.006 -0.008,0.0104 -0.0188,0.0189 -0.0278,0.0288 -0.009,0.0115 -0.0207,0.0206 -0.0266,0.0342 -0.008,0.0116 -0.0155,0.0236 -0.0184,0.0374 -0.003,0.0148 -2.7e-4,0.0303 5.3e-4,0.0453 0.002,0.0142 0.007,0.0276 0.008,0.0417 0.002,0.0148 0.008,0.0286 0.0107,0.0431 0.003,0.0141 0.007,0.0284 0.0131,0.0417 0.007,0.0124 0.0137,0.0249 0.0189,0.0382 0.004,0.0125 0.0132,0.0194 0.0237,0.0269 0.0105,0.009 0.0194,0.0186 0.0254,0.0309 0.007,0.0118 0.0118,0.0243 0.0174,0.0366 0.007,0.0142 0.0121,0.0293 0.0137,0.045 -8e-4,0.0167 -0.002,0.0336 -0.007,0.0496 -0.005,0.0145 -0.0114,0.0286 -0.016,0.0432 -0.005,0.0141 -0.0128,0.0269 -0.0202,0.04 -0.007,0.01 -0.0111,0.0221 -0.0183,0.0321 -0.008,0.009 -0.0112,0.0212 -0.0184,0.0312 -0.004,0.0105 -0.0121,0.0236 -0.0212,0.0303 -0.005,0.005 -0.003,0.004 -0.009,0.008 -0.0432,0.0256 -0.0846,0.0525 -0.12911,0.0748 -0.006,0.004 -0.0128,0.007 -0.0193,0.01 -0.002,10e-4 -0.008,0.004 -0.006,0.003 0.0765,-0.0448 0.1359,-0.0781 0.0952,-0.0553 -0.37112,0.21763 0.0692,-0.0405 -0.0171,0.0108 -0.0372,0.0222 -0.0763,0.0413 -0.11174,0.0661 -0.004,0.003 0.29352,-0.16999 -0.0143,0.008 -0.0152,0.007 -0.0305,0.0143 -0.0463,0.02 -0.015,0.006 -0.0302,0.0111 -0.0457,0.0154 -0.0144,0.004 -0.0289,0.008 -0.0437,0.0102 -0.015,0.001 -0.0301,0.002 -0.0448,0.005 -0.0155,0.003 -0.0311,0.003 -0.0469,0.003 -0.0159,2.7e-4 -0.0317,5.3e-4 -0.0474,0.003 -0.0148,0.002 -0.0294,0.006 -0.0445,0.005 -0.0167,10e-6 -0.0334,3e-5 -0.0501,4e-5 -0.0168,0 -0.0335,4e-5 -0.0502,-5.3e-4 -0.017,-7.9e-4 -0.0339,-0.002 -0.0506,-0.005 -0.0164,-0.003 -0.0327,-0.004 -0.0493,-0.003 -0.0156,-5.3e-4 -0.0312,-0.002 -0.0465,-0.005 -0.0152,-0.003 -0.0303,-0.004 -0.0458,-0.004 -0.0169,-10e-4 -0.0337,-0.004 -0.0504,-0.007 -0.0168,-0.001 -0.0337,-0.001 -0.0503,-0.005 -0.0165,-0.003 -0.0329,-0.007 -0.0494,-0.0106 -0.0142,-0.004 -0.0285,-0.007 -0.043,-0.0104 -0.0147,-0.002 -0.0294,-0.003 -0.0438,-0.007 -0.0157,-0.003 -0.0317,-0.002 -0.0474,-0.005 -0.0159,-0.003 -0.0317,-0.006 -0.0478,-0.007 -0.0145,-0.002 -0.0288,-0.006 -0.0436,-0.006 -0.017,-7.9e-4 -0.0339,-0.002 -0.0506,-0.005 -0.0164,-0.003 -0.0327,-0.004 -0.0493,-0.003 -0.0156,-5.2e-4 -0.0312,-0.002 -0.0465,-0.005 -0.0151,-0.003 -0.0301,-0.003 -0.0455,-0.003 -0.0159,-5.3e-4 -0.0318,-10e-4 -0.0475,-0.004 -0.0147,-0.003 -0.0293,-0.005 -0.0444,-0.004 -0.0167,0 -0.0334,0 -0.0501,-1e-5 -0.0167,0 -0.0334,-2e-5 -0.0501,-5e-5 -0.0167,-2e-5 -0.0334,-8e-5 -0.0501,2.1e-4 -0.0165,5.3e-4 -0.0331,10e-4 -0.0495,0.004 -0.0155,0.003 -0.0309,0.006 -0.0465,0.009 -0.0135,0.004 -0.0268,0.007 -0.0406,0.009 -0.0159,0.004 -0.0321,0.005 -0.0478,0.0102 -0.0219,0.007 -0.0431,0.0167 -0.0647,0.0249 0,0 0.0973,-0.0769 0.0973,-0.0769 z"
       inkscape:connector-curvature="0" />
    <path
       style="opacity:1;fill:#000000;fill-opacity:1;stroke:#000000;stroke-width:0;stroke-miterlimit:4;stroke-dasharray:none"
       id="path4677"
       d="m 133.98525,119.78478 c 0.0225,0.007 0.0458,0.0101 0.0691,0.0121 0.0187,2.7e-4 0.0363,0.008 0.055,0.006 0.0166,-0.002 0.0332,-0.004 0.0499,-0.005 0.0168,-5.3e-4 0.0335,-7.9e-4 0.0502,-7.9e-4 0.0167,-1e-5 0.0334,1e-5 0.0501,2e-5 0.0167,1e-5 0.0334,1e-5 0.0501,2e-5 0.017,5.3e-4 0.0306,7.9e-4 0.0471,-0.003 0.0148,-0.003 0.03,-0.004 0.0452,-0.005 0.0146,-0.001 0.0285,-0.005 0.0432,-0.007 0.0163,2.7e-4 0.0318,-0.003 0.0477,-0.006 0.0168,-0.003 0.0337,-0.003 0.0506,-0.004 0.0148,-7.9e-4 0.029,-0.005 0.0438,-0.007 0.0147,2.6e-4 0.0282,-0.005 0.0426,-0.008 0.016,-2.7e-4 0.0312,-0.004 0.0468,-0.007 0.017,-0.002 0.0332,-0.007 0.05,-0.009 0.0171,-0.001 0.0333,-0.006 0.0502,-0.008 0.0156,-2.1e-4 0.0299,-0.006 0.0451,-0.009 0.0102,-0.002 0.0209,-5.3e-4 0.0311,-0.002 0.005,-8e-4 0.009,-0.002 0.0133,-0.004 0.0148,-0.004 0.03,-0.004 0.0451,-0.005 0.0138,-0.005 0.0281,-0.007 0.0425,-0.008 0.0133,-0.005 0.0275,-0.007 0.0418,-0.008 0.0176,-2.7e-4 0.0347,-0.004 0.0521,-0.007 0.017,6e-5 0.0328,-0.006 0.0494,-0.009 0.0146,-2.6e-4 0.0279,-0.006 0.0422,-0.008 0.0157,-0.002 0.0315,-0.002 0.0473,-0.002 0.0167,-9e-5 0.0334,-3e-5 0.05,-1e-5 0.0167,3e-5 0.0334,4e-5 0.0502,4e-5 0.0167,1e-5 0.0334,1e-5 0.0501,1e-5 0.0167,0 0.0334,0 0.0501,0 0.0157,-0.002 0.0305,0.003 0.0458,0.006 0.0159,10e-4 0.0311,0.006 0.0468,0.008 0.017,0.001 0.0332,0.006 0.0499,0.008 0.017,8e-4 0.0333,0.006 0.0502,0.008 0.0168,0.003 0.0331,0.007 0.05,0.009 0.014,0.006 0.0293,0.006 0.0437,0.0107 0.0161,0.004 0.0324,0.006 0.0485,0.0104 0.0102,0.002 0.0207,0.004 0.0312,0.005 0,0 -0.10145,0.0716 -0.10145,0.0716 v 0 c -0.0106,-0.002 -0.0212,-0.003 -0.0316,-0.006 -0.0161,-0.004 -0.0327,-0.006 -0.0486,-0.0103 -0.0144,-0.003 -0.0286,-0.006 -0.0429,-0.01 -0.0168,-0.003 -0.0333,-0.007 -0.0502,-0.009 -0.0167,-0.003 -0.0333,-0.007 -0.0502,-0.008 -0.0166,-0.003 -0.0331,-0.007 -0.05,-0.008 -0.0156,-0.003 -0.0311,-0.007 -0.047,-0.008 -0.0147,-0.003 -0.0293,-0.006 -0.0444,-0.004 -0.0167,0 -0.0334,0 -0.0501,0 -0.0167,0 -0.0334,0 -0.0501,-10e-6 -0.0167,-1e-5 -0.0334,-2e-5 -0.0502,-5e-5 -0.0166,-2e-5 -0.0333,-9e-5 -0.0499,2.2e-4 -0.0154,5.3e-4 -0.031,10e-4 -0.0461,0.004 -0.014,0.003 -0.0279,0.007 -0.0422,0.008 -0.0164,0.004 -0.0327,0.007 -0.0495,0.008 -0.0175,0.003 -0.0349,0.006 -0.0526,0.007 -0.0141,0.002 -0.0277,0.006 -0.0418,0.008 -0.0144,0.002 -0.0284,0.006 -0.0429,0.007 -0.0148,10e-4 -0.0296,0.003 -0.044,0.006 -0.0148,0.003 -0.0299,0.002 -0.0446,0.006 -0.0149,0.003 -0.0298,0.007 -0.0451,0.008 -0.0167,0.003 -0.0332,0.007 -0.0501,0.009 -0.0166,0.003 -0.0331,0.007 -0.05,0.01 -0.0156,0.003 -0.0313,0.005 -0.0469,0.007 -0.0142,0.003 -0.0284,0.006 -0.043,0.007 -0.0148,0.002 -0.0293,0.006 -0.0444,0.006 -0.0166,7.9e-4 -0.0332,0.002 -0.0495,0.005 -0.016,0.003 -0.032,0.004 -0.0481,0.006 -0.0146,0.002 -0.0289,0.007 -0.0437,0.006 -0.0149,0.001 -0.0297,0.003 -0.0442,0.006 -0.016,0.002 -0.0322,0.001 -0.0484,0.001 -0.0167,0 -0.0334,0 -0.0501,-2e-5 -0.0167,-1e-5 -0.0334,-3e-5 -0.0501,2e-5 -0.0166,10e-5 -0.0332,2.3e-4 -0.0498,10e-4 -0.0168,0.001 -0.0335,0.004 -0.0504,0.004 -0.0186,-0.002 -0.0367,-0.007 -0.0554,-0.008 -0.0239,-0.003 -0.0476,-0.007 -0.0708,-0.0135 0,0 0.10234,-0.0701 0.10234,-0.0701 z"
       inkscape:connector-curvature="0" />
    <path
       style="opacity:1;fill:#000000;fill-opacity:1;stroke:#000000;stroke-width:0;stroke-miterlimit:4;stroke-dasharray:none"
       id="path4679"
       d="m 135.78032,119.78412 c 0.0126,0.0204 0.0299,0.0372 0.0493,0.0511 0.0136,0.0112 0.0277,0.0212 0.0446,0.0264 0.0151,0.007 0.0314,0.01 0.0479,0.0109 0.0156,-7.9e-4 0.0302,0.004 0.0454,0.007 0.016,5.3e-4 0.0313,0.004 0.0469,0.007 0.0162,0.002 0.032,0.003 0.0478,0.007 0.0143,0.003 0.0284,0.004 0.0425,0.008 0.0148,0.002 0.0292,0.006 0.0438,0.01 0.0157,0.001 0.0306,0.005 0.0459,0.009 0.0147,0.002 0.0291,0.003 0.0435,0.007 0.0143,0.004 0.029,0.004 0.0436,0.005 0.0165,5.3e-4 0.0329,2.7e-4 0.0494,2.7e-4 0.0167,-3e-5 0.0334,-5e-5 0.0502,-6e-5 0.0167,-1e-5 0.0334,-1e-5 0.0501,-1e-5 0.0167,0 0.0334,0 0.0501,0 0.0167,0 0.0334,0 0.0501,0 0.0165,-7.9e-4 0.0334,0.002 0.0497,-0.002 0.0167,-0.003 0.0332,-0.005 0.0497,-0.009 0.0149,-0.004 0.0288,-0.01 0.0443,-0.0123 0.0154,-0.005 0.0316,-0.007 0.0459,-0.0156 0.003,-0.001 0.005,-0.002 0.008,-0.003 0.005,-0.002 0.0188,-0.0107 0.0141,-0.008 -0.0312,0.018 -0.1251,0.0714 -0.094,0.0533 0.0374,-0.0217 0.0748,-0.0431 0.11228,-0.0647 0,0 -0.0967,0.0778 -0.0967,0.0778 v 0 c 0.0333,-0.0194 0.0666,-0.0388 0.1,-0.0581 0.002,-0.001 -0.004,0.003 -0.006,0.004 -0.0374,0.0219 -0.0748,0.0438 -0.11225,0.0655 -0.007,0.004 -0.015,0.007 -0.0225,0.0105 -0.0156,0.005 -0.0316,0.01 -0.0477,0.0134 -0.0148,0.004 -0.0288,0.01 -0.0438,0.0126 -0.0167,0.004 -0.0337,0.006 -0.0505,0.008 -0.0168,8e-4 -0.0337,2.7e-4 -0.0505,5.3e-4 -0.0167,0 -0.0334,0 -0.0501,0 -0.0167,0 -0.0334,0 -0.0501,0 -0.0167,0 -0.0334,1e-5 -0.0501,2e-5 -0.0167,1e-5 -0.0335,4e-5 -0.0502,5e-5 -0.0166,-1e-5 -0.0332,2e-5 -0.0498,-7.9e-4 -0.0152,-0.001 -0.0304,-0.003 -0.0451,-0.007 -0.0144,-0.003 -0.0292,-0.003 -0.0435,-0.007 -0.0151,-0.004 -0.0304,-0.006 -0.0457,-0.009 -0.0147,-0.004 -0.0296,-0.006 -0.0443,-0.01 -0.0139,-0.003 -0.0284,-0.004 -0.0422,-0.008 -0.0156,-0.003 -0.0317,-0.003 -0.0473,-0.007 -0.0156,-0.003 -0.0312,-0.005 -0.047,-0.007 -0.0148,-0.003 -0.0296,-0.006 -0.0448,-0.006 -0.0171,-0.002 -0.0336,-0.007 -0.0495,-0.0133 -0.0171,-0.007 -0.032,-0.0178 -0.0462,-0.0297 -0.0199,-0.0156 -0.0376,-0.0335 -0.0521,-0.0543 0,0 0.10703,-0.0627 0.10703,-0.0627 z"
       inkscape:connector-curvature="0" />
    <path
       style="opacity:1;fill:#000000;fill-opacity:1;stroke:#000000;stroke-width:0;stroke-miterlimit:4;stroke-dasharray:none"
       id="path4683"
       d="m 132.08291,119.03083 c -0.0448,0.0281 -0.0914,0.0533 -0.13696,0.0798 -0.0313,0.0182 0.12583,-0.0718 0.0941,-0.0543 -0.009,0.005 -0.27009,0.15466 -0.0199,0.0113 -0.0157,0.009 -0.0313,0.0191 -0.0456,0.0305 -0.0126,0.01 -0.0249,0.0203 -0.0363,0.0318 -0.009,0.009 -0.018,0.0175 -0.0265,0.0267 -0.0102,0.009 -0.019,0.0187 -0.0286,0.028 -0.0111,0.0105 -0.0171,0.0245 -0.0237,0.038 -0.008,0.0134 -0.0153,0.0266 -0.0196,0.0416 -0.004,0.0157 -0.004,0.0319 -0.004,0.048 0.001,0.0133 0.004,0.0264 0.008,0.039 0.006,0.01 0.0123,0.0195 0.0191,0.0287 0.007,0.0109 0.0166,0.0197 0.0249,0.0295 0.01,0.0118 0.0173,0.0253 0.0235,0.0391 0.006,0.0121 0.0131,0.0238 0.0203,0.0353 0.007,0.0128 0.0123,0.0262 0.021,0.0377 0.007,0.0103 0.0162,0.019 0.0243,0.0286 0.009,0.009 0.0194,0.0181 0.0283,0.0277 0.009,0.008 0.0177,0.0165 0.0257,0.0255 0.009,0.007 0.0152,0.0171 0.0253,0.0228 0.0102,0.007 0.0189,0.0151 0.0284,0.0226 0.002,8e-4 0.003,0.002 0.005,0.002 0.007,0.004 0.003,0.003 0.01,0.007 0.006,0.003 0.0114,0.004 0.017,0.007 0.0123,0.004 0.0242,0.009 0.0366,0.0126 0.0134,0.002 0.027,0.006 0.0392,0.0117 0.0122,0.005 0.0251,0.008 0.0376,0.0118 0.0138,0.004 0.0282,0.005 0.0425,0.005 0.0148,8e-4 0.0291,0.005 0.0439,0.007 0.0155,0.005 0.0315,0.008 0.0477,0.009 0.0165,0.001 0.0331,0.001 0.0497,0.001 0.0155,-0.003 0.0301,0.005 0.0453,0.004 0.0154,-0.002 0.031,-0.003 0.0465,-0.004 0.0167,-5.3e-4 0.0334,-5.3e-4 0.0501,-5.3e-4 0.0168,7.9e-4 0.0331,3e-5 0.0496,-0.003 0.0165,-0.004 0.0337,-0.003 0.0501,-0.006 0.0167,-0.003 0.0333,-0.006 0.0499,-0.01 0.0177,-0.003 0.035,-0.007 0.0526,-0.01 0.0187,-0.003 0.0369,-0.008 0.0558,-0.0108 0.0159,-0.006 0.0335,-0.005 0.0494,-0.011 0.0147,-0.003 0.0289,-0.008 0.0436,-0.0117 0.0153,-0.001 0.0292,-0.007 0.0443,-0.0101 0.0156,-0.003 0.0317,-8e-4 0.0471,-0.004 0.0165,-0.004 0.0334,-0.005 0.0502,-0.006 0.0159,10e-4 0.0306,-0.002 0.046,-0.005 0.0153,-0.003 0.0309,-0.003 0.0464,-0.003 0.0157,0.002 0.0302,-0.002 0.0455,-0.005 0.0153,-0.003 0.0309,-0.003 0.0464,-0.003 0.0166,-2.2e-4 0.0333,-1.7e-4 0.0499,-1.4e-4 0.0151,2.1e-4 0.0296,0.005 0.0447,0.007 0.0157,0.002 0.0315,0.002 0.0473,0.002 0.0165,-5.3e-4 0.0324,-5.3e-4 0.0484,0.003 0.0143,0.004 0.0295,0.003 0.0437,0.006 0.0138,0.003 0.0275,0.006 0.0411,0.01 0.0137,0.002 0.0265,0.007 0.0399,0.01 0.0159,0.002 0.0305,0.007 0.0454,0.0127 0.0156,0.003 0.0305,0.008 0.0459,0.0123 0.0147,0.005 0.0305,0.007 0.045,0.0122 0.0144,0.005 0.0282,0.0105 0.0431,0.0136 0.0143,0.005 0.0276,0.0125 0.0425,0.0163 0.013,0.005 0.0237,0.0131 0.037,0.0169 0.0137,0.002 0.0263,0.007 0.0399,0.009 0.0148,2.6e-4 0.0287,0.004 0.0431,0.007 0.0147,0.002 0.029,0.003 0.0434,0.007 0.0138,0.006 0.0284,0.0101 0.0425,0.0156 0.006,0.002 0.0124,0.003 0.0186,0.005 0,0 -0.10244,0.0705 -0.10244,0.0705 v 0 c -0.006,-0.002 -0.0129,-0.004 -0.0192,-0.006 -0.0137,-0.005 -0.0278,-0.009 -0.0416,-0.0142 -0.0143,-0.003 -0.0291,-0.003 -0.0433,-0.007 -0.0142,-0.003 -0.0285,-0.005 -0.0429,-0.007 -0.0137,-0.003 -0.0272,-0.007 -0.0409,-0.0106 -0.0123,-0.005 -0.0234,-0.0129 -0.0365,-0.0165 -0.0143,-0.005 -0.0276,-0.0118 -0.0422,-0.0159 -0.0148,-0.004 -0.029,-0.01 -0.0437,-0.0143 -0.0149,-0.004 -0.0299,-0.008 -0.0448,-0.0118 -0.0153,-0.005 -0.031,-0.008 -0.0462,-0.0131 -0.0148,-0.005 -0.0298,-0.009 -0.0452,-0.0118 -0.0133,-0.004 -0.0267,-0.007 -0.0401,-0.0103 -0.0132,-0.004 -0.027,-0.005 -0.0403,-0.009 -0.0146,-0.002 -0.0293,-0.003 -0.0437,-0.006 -0.0155,-0.002 -0.0313,-10e-4 -0.047,-0.002 -0.0161,-2.7e-4 -0.0323,-5.3e-4 -0.0484,-0.003 -0.0145,-0.002 -0.0288,-0.006 -0.0435,-0.005 -0.0166,0 -0.0331,-4e-5 -0.0497,5.3e-4 -0.0152,7.9e-4 -0.0304,0.002 -0.0453,0.005 -0.0154,0.003 -0.0309,0.003 -0.0465,0.003 -0.0152,5.3e-4 -0.0304,0.002 -0.0453,0.005 -0.0155,0.003 -0.031,0.003 -0.0468,0.004 -0.0167,0.001 -0.0332,0.004 -0.0497,0.007 -0.0156,10e-4 -0.0314,10e-4 -0.0468,0.005 -0.0146,0.004 -0.029,0.008 -0.0439,0.0104 -0.0145,0.004 -0.0291,0.008 -0.0437,0.0117 -0.0168,0.003 -0.0333,0.006 -0.05,0.01 -0.0186,0.003 -0.0367,0.008 -0.0553,0.011 -0.0175,0.004 -0.035,0.007 -0.0524,0.0105 -0.0166,0.004 -0.0337,0.006 -0.0504,0.009 -0.0167,0.002 -0.0336,0.003 -0.0501,0.006 -0.0169,0.002 -0.0338,10e-4 -0.0507,0.002 -0.0166,9e-5 -0.0332,2.1e-4 -0.0498,0.001 -0.0158,10e-4 -0.0315,0.003 -0.0473,0.003 -0.015,-0.002 -0.0297,-0.005 -0.0449,-0.004 -0.0168,-1.3e-4 -0.0337,-2.6e-4 -0.0504,-0.002 -0.0162,-0.002 -0.0321,-0.006 -0.0481,-0.009 -0.0144,-0.002 -0.0285,-0.006 -0.0432,-0.006 -0.0151,-0.001 -0.0303,-0.003 -0.0447,-0.008 -0.0128,-0.004 -0.0262,-0.006 -0.0382,-0.0126 -0.0127,-0.004 -0.0256,-0.008 -0.0385,-0.0108 -0.0125,-0.004 -0.0252,-0.008 -0.0374,-0.0137 -0.0121,-0.005 -0.0233,-0.0107 -0.0336,-0.0188 -0.009,-0.008 -0.018,-0.015 -0.0277,-0.0215 -0.01,-0.007 -0.0179,-0.0168 -0.0268,-0.0253 -0.008,-0.009 -0.017,-0.0169 -0.0256,-0.0253 -0.009,-0.01 -0.0193,-0.0186 -0.0286,-0.0284 -0.008,-0.01 -0.0176,-0.0188 -0.0247,-0.0294 -0.009,-0.0121 -0.0148,-0.0254 -0.0214,-0.0385 -0.007,-0.012 -0.0147,-0.0242 -0.0212,-0.0368 -0.005,-0.0128 -0.0126,-0.0253 -0.0217,-0.036 -0.009,-0.01 -0.0185,-0.0191 -0.0256,-0.0303 -0.007,-0.0104 -0.0148,-0.0206 -0.0207,-0.0318 -0.005,-0.0139 -0.008,-0.0283 -0.0102,-0.043 1.1e-4,-0.0168 1.6e-4,-0.0338 0.003,-0.0505 0.003,-0.0162 0.009,-0.0307 0.0182,-0.0446 0.008,-0.013 0.0118,-0.0288 0.0224,-0.0404 0.008,-0.0105 0.0188,-0.0194 0.0281,-0.029 0.01,-0.008 0.0178,-0.018 0.0267,-0.0269 0.0124,-0.0104 0.0224,-0.0236 0.0364,-0.0323 0.0136,-0.0128 0.0292,-0.023 0.0453,-0.0324 0.0383,-0.0222 0.0765,-0.0444 0.11482,-0.0666 0.0315,-0.0183 -0.12641,0.0729 -0.0947,0.0549 0.38121,-0.21567 -0.0797,0.0432 0.0422,-0.0245 0,0 0.11552,-0.0452 0.11552,-0.0452 z"
       inkscape:connector-curvature="0" />
    <path
       style="opacity:1;fill:#000000;fill-opacity:1;stroke:#000000;stroke-width:0;stroke-miterlimit:4;stroke-dasharray:none"
       id="path4687"
       d="m 132.29582,118.97736 c 5.3e-4,0.0193 0.004,0.0383 0.006,0.0575 0.003,0.0161 2.7e-4,0.0318 -0.002,0.0477 -0.003,0.0149 -0.002,0.03 -0.005,0.0448 -0.004,0.0121 -0.002,0.0244 -5.3e-4,0.0367 2.4e-4,0.0146 0.002,0.0286 0.005,0.0428 0.004,0.0129 0.002,0.026 0.002,0.0392 0.002,0.0127 2.2e-4,0.0249 -0.002,0.0374 -0.001,0.0138 -0.006,0.0267 -0.009,0.0402 -0.003,0.0136 -0.007,0.0268 -0.009,0.0407 -0.002,0.0159 -0.002,0.032 -0.002,0.048 -0.001,0.0153 2.7e-4,0.0302 0.003,0.0452 2.6e-4,0.002 5.3e-4,0.005 7.9e-4,0.007 0,0 -0.11045,0.0569 -0.11045,0.0569 v 0 c 9e-5,-0.002 1.8e-4,-0.004 2.6e-4,-0.005 -0.003,-0.0158 -0.006,-0.0313 -0.004,-0.0476 4e-5,-0.0164 1e-5,-0.0328 0.001,-0.0492 0.001,-0.0141 0.003,-0.0281 0.009,-0.0412 0.002,-0.0138 0.006,-0.0266 0.009,-0.0401 0.002,-0.0117 0.006,-0.023 0.003,-0.0349 -0.001,-0.0128 0.002,-0.0251 -0.001,-0.0377 -0.003,-0.0147 -0.006,-0.029 -0.006,-0.0442 -0.001,-0.0133 -0.005,-0.027 -0.001,-0.0402 0.004,-0.0146 0.004,-0.0292 0.006,-0.0442 0.002,-0.0151 0.007,-0.0296 0.004,-0.045 -0.002,-0.019 -0.005,-0.0377 -0.006,-0.0567 0,0 0.10973,-0.0579 0.10973,-0.0579 z"
       inkscape:connector-curvature="0" />
    <path
       style="opacity:1;fill:#000000;fill-opacity:1;stroke:#000000;stroke-width:0;stroke-miterlimit:4;stroke-dasharray:none"
       id="path4691"
       d="m 132.5792,118.98649 c -7.9e-4,0.0234 -5.3e-4,0.0468 -2.6e-4,0.0701 1e-4,0.0184 1.5e-4,0.0368 1.8e-4,0.0551 0.001,0.0156 -0.002,0.0308 -0.004,0.046 -0.003,0.0152 -0.003,0.0306 -0.004,0.046 -0.002,0.0166 0.002,0.0328 0.004,0.049 0.003,0.0168 0.003,0.0339 0.004,0.0509 0.002,0.0157 -10e-4,0.0308 -0.004,0.0461 -0.003,0.0152 -0.003,0.0307 -0.004,0.0461 -5.3e-4,0.0162 5.3e-4,0.0324 -0.002,0.0485 -0.003,0.0106 -0.002,0.0216 -0.003,0.0324 0,0 -0.11066,0.0571 -0.11066,0.0571 v 0 c -7.9e-4,-0.006 8e-4,-0.009 0.001,-0.0148 1.1e-4,-0.007 -0.002,-0.0137 5.3e-4,-0.0205 0.004,-0.0155 0.003,-0.0308 0.003,-0.0467 2.4e-4,-0.0159 5.2e-4,-0.0319 0.003,-0.0477 0.002,-0.0147 0.007,-0.0289 0.006,-0.044 -2.6e-4,-0.0165 -5.3e-4,-0.0331 -0.003,-0.0494 -0.002,-0.0169 -0.007,-0.0337 -0.005,-0.0509 2.3e-4,-0.0159 5.2e-4,-0.0319 0.003,-0.0476 0.002,-0.0148 0.007,-0.029 0.006,-0.0442 3e-5,-0.0185 8e-5,-0.0369 1.8e-4,-0.0553 1.2e-4,-0.0233 2.7e-4,-0.0466 -2.6e-4,-0.0698 0,0 0.11056,-0.0563 0.11056,-0.0563 z"
       inkscape:connector-curvature="0" />
    <path
       style="opacity:1;fill:#000000;fill-opacity:1;stroke:#000000;stroke-width:0;stroke-miterlimit:4;stroke-dasharray:none"
       id="path4693"
       d="m 132.28878,119.45563 c 0.0233,0.002 0.0462,-0.003 0.0693,-0.005 0.0158,-0.005 0.032,-0.009 0.0486,-0.0102 0.0165,-5.3e-4 0.0329,0.004 0.0494,0.006 0.0165,0.002 0.0331,0.002 0.0497,0.002 0.008,-7.9e-4 0.0157,0.002 0.0234,0.003 0,0 -0.10178,0.0709 -0.10178,0.0709 v 0 c -0.007,-10e-4 -0.0145,-0.002 -0.0219,-0.002 -0.0168,-2.7e-4 -0.0337,-8e-4 -0.0504,-0.003 -0.0158,-0.002 -0.0317,-0.006 -0.0477,-0.003 -0.0163,0.002 -0.0319,0.007 -0.0482,0.01 -0.0235,0.003 -0.047,0.005 -0.0707,0.005 0,0 0.10038,-0.0729 0.10038,-0.0729 z"
       inkscape:connector-curvature="0" />
    <path
       style="opacity:1;fill:#000000;fill-opacity:1;stroke:#000000;stroke-width:0;stroke-miterlimit:4;stroke-dasharray:none"
       id="path4695"
       d="m 132.29661,118.9695 c 0.0218,-5.3e-4 0.0418,-0.007 0.0616,-0.0149 0.0152,-0.006 0.0315,-0.007 0.0478,-0.008 0.0152,10e-4 0.0292,-0.004 0.044,-0.006 0.0157,-0.002 0.0316,-0.002 0.0474,-0.002 0.0153,0.003 0.0302,0.006 0.0439,0.0138 0.0121,0.006 0.0249,0.0114 0.0365,0.0186 0.0105,0.006 0.0202,0.0135 0.0287,0.0221 0,0 -0.10616,0.0651 -0.10616,0.0651 v 0 c -0.008,-0.008 -0.0169,-0.0143 -0.0267,-0.0195 -0.0119,-0.006 -0.0238,-0.0123 -0.0359,-0.018 -0.0128,-0.005 -0.0265,-0.009 -0.0404,-0.009 -0.0155,5.3e-4 -0.0311,10e-4 -0.0464,0.004 -0.0148,0.003 -0.0295,0.005 -0.0447,0.005 -0.0157,0.002 -0.0309,0.005 -0.0454,0.0111 -0.0205,0.007 -0.042,0.01 -0.0635,0.0128 0,0 0.0993,-0.0743 0.0993,-0.0743 z"
       inkscape:connector-curvature="0" />
    <path
       style="opacity:1;fill:#800000;fill-opacity:1;stroke:#000000;stroke-width:0;stroke-miterlimit:4;stroke-dasharray:none"
       id="path4713"
       d="m 132.33758,119.05253 c 0.002,0.0218 -0.002,0.0433 -0.005,0.0648 -0.003,0.0175 -0.003,0.0353 -0.004,0.053 -2.6e-4,0.0167 -2.5e-4,0.0333 -2.4e-4,0.05 0.001,0.0163 -7.9e-4,0.0317 -0.006,0.047 -0.005,0.014 -0.008,0.0285 -0.0126,0.0427 -0.003,0.009 -0.008,0.0179 -0.009,0.0277 0,0 -0.11217,0.054 -0.11217,0.054 v 0 c 0.003,-0.01 0.003,-0.0202 0.01,-0.0285 0.004,-0.0146 0.009,-0.0287 0.0123,-0.0435 0.005,-0.0142 0.0104,-0.0274 0.008,-0.0431 -2e-5,-0.0168 -9e-5,-0.0335 1.3e-4,-0.0503 2.6e-4,-0.0182 0.001,-0.0364 0.004,-0.0544 0.003,-0.0204 0.008,-0.0407 0.006,-0.0614 0,0 0.10973,-0.0579 0.10973,-0.0579 z"
       inkscape:connector-curvature="0" />
    <path
       style="opacity:1;fill:#800000;fill-opacity:1;stroke:#000000;stroke-width:0;stroke-miterlimit:4;stroke-dasharray:none"
       id="path4737"
       d="m 132.21269,119.17675 c 0.046,-0.0409 0.1078,-0.0691 0.15892,-0.0983 -0.21806,0.12504 -0.0387,0.0222 0.0139,-0.008 0.0334,-0.0193 -0.0667,0.0386 -0.10024,0.0577 -0.002,10e-4 0.004,-0.003 0.005,-0.004 0.12715,-0.0741 0.075,-0.0413 0.11613,-0.0672 0,0 -0.0967,0.0783 -0.0967,0.0783 v 0 c -0.0384,0.0198 -0.0105,0.005 0.0962,-0.0563 0.002,-0.001 -0.004,0.002 -0.006,0.004 -0.0372,0.022 -0.0757,0.0418 -0.11168,0.0657 -0.004,0.003 0.29344,-0.17013 -0.0139,0.008 0.18837,-0.10953 0.0913,-0.0567 0.0522,-0.0266 0,0 -0.11462,0.0475 -0.11462,0.0475 z"
       inkscape:connector-curvature="0" />
    <path
       style="opacity:1;fill:#800000;fill-opacity:1;stroke:#000000;stroke-width:0;stroke-miterlimit:4;stroke-dasharray:none"
       id="path4739"
       d="m 132.32949,119.09312 c 0.003,-0.001 0.006,-0.003 0.009,-0.004 0.0211,-0.009 5.3e-4,7.9e-4 0.0206,-0.009 0.003,-0.002 0.0127,-0.007 0.01,-0.005 -0.12361,0.0716 -0.12791,0.0744 -0.0904,0.0513 0.0415,-0.0318 0.0798,-0.0496 0.13078,-0.0787 0,0 -0.0983,0.0768 -0.0983,0.0768 v 0 c 0.17993,-0.10479 0.11872,-0.0764 0.083,-0.0428 -0.0524,0.032 -0.10402,0.0676 -0.16259,0.0872 0,0 0.0983,-0.0757 0.0983,-0.0757 z"
       inkscape:connector-curvature="0" />
    <path
       style="opacity:1;fill:#800000;fill-opacity:1;stroke:#000000;stroke-width:0;stroke-miterlimit:4;stroke-dasharray:none"
       id="path4741"
       d="m 132.25445,119.16005 c 0.0121,-0.014 0.0254,-0.0263 0.0403,-0.0372 0,0 0.11484,-0.0456 0.11484,-0.0456 v 0 c -0.0143,0.0109 -0.0305,0.0196 -0.0405,0.0353 0,0 -0.11462,0.0475 -0.11462,0.0475 z"
       inkscape:connector-curvature="0" />
    <path
       style="opacity:1;fill:#800000;fill-opacity:1;stroke:#000000;stroke-width:0;stroke-miterlimit:4;stroke-dasharray:none"
       id="path4743"
       d="m 132.30393,119.11657 c 0.0443,-0.0261 -0.025,0.0148 -0.0865,0.0492 -0.003,0.002 0.006,-0.004 0.01,-0.007 0.008,-0.006 0.0169,-0.0107 0.0252,-0.0163 0.002,-0.002 0.004,-0.003 0.007,-0.004 0,0 0.11506,-0.0459 0.11506,-0.0459 v 0 c -0.002,0.002 -0.004,0.004 -0.006,0.005 -0.0531,0.0325 -0.10357,0.0703 -0.16099,0.0954 0,0 0.0973,-0.0769 0.0973,-0.0769 z"
       inkscape:connector-curvature="0" />
    <path
       style="opacity:1;fill:#800000;fill-opacity:1;stroke:#000000;stroke-width:0;stroke-miterlimit:4;stroke-dasharray:none"
       id="path4745"
       d="m 132.2383,119.1599 c 0.0173,-0.0121 0.0338,-0.0254 0.0497,-0.0393 0.008,-0.007 0.004,-0.003 0.0113,-0.0103 0,0 0.11489,-0.0467 0.11489,-0.0467 v 0 c -0.008,0.006 -0.004,0.003 -0.0115,0.0107 -0.0166,0.0131 -0.0321,0.0276 -0.0489,0.0405 0,0 -0.11552,0.0452 -0.11552,0.0452 z"
       inkscape:connector-curvature="0" />
    <path
       style="opacity:1;fill:#800000;fill-opacity:1;stroke:#000000;stroke-width:0;stroke-miterlimit:4;stroke-dasharray:none"
       id="path4747"
       d="m 132.22995,119.1432 c 0.0205,-0.0132 0.0404,-0.027 0.0583,-0.0437 0.007,-0.006 0.013,-0.0132 0.0192,-0.02 0,0 0.11439,-0.0475 0.11439,-0.0475 v 0 c -0.007,0.007 -0.0125,0.014 -0.0197,0.0202 -0.0166,0.0181 -0.0363,0.0323 -0.0567,0.0457 0,0 -0.11551,0.0452 -0.11551,0.0452 z"
       inkscape:connector-curvature="0" />
    <path
       style="opacity:1;fill:#800000;fill-opacity:1;stroke:#000000;stroke-width:0;stroke-miterlimit:4;stroke-dasharray:none"
       id="path4749"
       d="m 132.2383,119.1432 c 0.047,-0.0305 0.0954,-0.0576 0.14446,-0.0854 0.0128,-0.005 0.007,-0.002 0.018,-0.009 0.003,-0.001 0.005,-0.002 0.008,-0.004 0,0 -0.0967,0.0773 -0.0967,0.0773 v 0 c -0.002,10e-4 -0.005,0.003 -0.007,0.004 -0.0383,0.0184 -0.0916,0.0509 0.0781,-0.0469 0.007,-0.004 -0.0129,0.009 -0.0196,0.0132 -0.003,0.002 -0.006,0.003 -0.009,0.005 0,0 -0.11551,0.0452 -0.11551,0.0452 z"
       inkscape:connector-curvature="0" />
    <path
       style="opacity:1;fill:#800000;fill-opacity:1;stroke:#000000;stroke-width:0;stroke-miterlimit:4;stroke-dasharray:none"
       id="path4751"
       d="m 132.2461,119.13499 c 0.0108,-0.01 0.005,-0.005 0.0166,-0.0152 0,0 0.11401,-0.0469 0.11401,-0.0469 v 0 c -0.0106,0.0106 -0.005,0.006 -0.016,0.0146 0,0 -0.11463,0.0475 -0.11463,0.0475 z"
       inkscape:connector-curvature="0" />
    <path
       style="opacity:1;fill:#800000;fill-opacity:1;stroke:#000000;stroke-width:0;stroke-miterlimit:4;stroke-dasharray:none"
       id="path4753"
       d="m 132.2383,119.13485 c 0.0446,-0.0344 0.0934,-0.0576 0.14328,-0.0865 0.007,-0.004 -0.29547,0.1698 0.017,-0.01 0.0106,-0.004 0.006,-0.002 0.0147,-0.007 0,0 -0.0965,0.0778 -0.0965,0.0778 v 0 c -0.01,0.004 -0.005,0.002 -0.0145,0.007 0.25371,-0.14689 -0.008,0.005 -0.0168,0.009 -0.0324,0.0177 0.0637,-0.0372 0.0956,-0.0557 0.004,-0.002 -0.008,0.004 -0.0194,0.0128 -0.003,0.002 -0.005,0.005 -0.008,0.007 0,0 -0.11552,0.0452 -0.11552,0.0452 z"
       inkscape:connector-curvature="0" />
    <path
       style="opacity:1;fill:#800000;fill-opacity:1;stroke:#000000;stroke-width:0;stroke-miterlimit:4;stroke-dasharray:none"
       id="path4755"
       d="m 132.2461,119.13499 c 0.01,-0.0105 0.005,-0.005 0.0153,-0.0163 0,0 0.11379,-0.0474 0.11379,-0.0474 v 0 c -0.0105,0.0106 -0.006,0.005 -0.0145,0.0163 0,0 -0.11462,0.0475 -0.11462,0.0475 z"
       inkscape:connector-curvature="0" />
    <path
       style="opacity:1;fill:#000000;fill-opacity:1;stroke:#000000;stroke-width:0;stroke-miterlimit:4;stroke-dasharray:none"
       id="path4761"
       d="m 126.66621,120.51139 c 0.0222,-0.007 0.0428,-0.0174 0.0652,-0.0236 0.0426,-0.0194 0.0136,-0.006 -0.092,0.053 -0.002,0.001 0.004,-0.002 0.006,-0.004 0.005,-0.004 0.009,-0.007 0.0127,-0.0121 0.005,-0.011 0.0126,-0.0208 0.0198,-0.0306 0.007,-0.0111 0.0163,-0.0209 0.0252,-0.0306 0.01,-0.008 0.0176,-0.0183 0.0257,-0.0283 0.009,-0.01 0.0193,-0.0187 0.0295,-0.0273 0.0103,-0.008 0.0182,-0.0189 0.0264,-0.0293 0.008,-0.0102 0.0159,-0.0202 0.0252,-0.0291 0.009,-0.007 0.0192,-0.0134 0.0278,-0.0214 0.007,-0.009 0.0142,-0.0191 0.0223,-0.0279 0.008,-0.009 0.0163,-0.0182 0.0253,-0.0264 0.0105,-0.008 0.021,-0.0165 0.0316,-0.0248 0.009,-0.008 0.0173,-0.0166 0.0262,-0.0247 0.0106,-0.0103 0.0201,-0.0216 0.0301,-0.0326 0.0126,-0.0138 0.0263,-0.0267 0.041,-0.0383 0.0121,-0.009 0.0236,-0.0179 0.0352,-0.027 0.0145,-0.0114 0.03,-0.0216 0.0453,-0.032 0.0426,-0.0312 0.0902,-0.053 0.1351,-0.0813 0.0325,-0.0205 -0.0664,0.0385 -0.0998,0.0575 -0.002,0.001 0.004,-0.003 0.006,-0.004 0.0447,-0.0324 0.0934,-0.057 0.14172,-0.0849 0.008,-0.004 0.0154,-0.008 0.0232,-0.0125 0.003,-10e-4 0.0109,-0.005 0.008,-0.004 -0.18371,0.10701 -0.1257,0.0725 -0.092,0.0525 0.0399,-0.0266 0.0823,-0.0469 0.12373,-0.0729 0.0328,-0.0206 -0.0671,0.0388 -0.10073,0.0581 -0.007,0.004 0.005,-0.003 0.0112,-0.007 0.053,-0.0194 0.0969,-0.0621 0.15004,-0.0827 -0.0167,0.0118 0.0484,-0.0258 0.0305,-0.0154 -0.0221,0.0128 -0.26316,0.15106 0.014,-0.008 0.0133,-0.005 0.0258,-0.0126 0.0387,-0.019 0.0151,-0.004 0.0282,-0.0133 0.042,-0.0205 -0.20548,0.12039 -0.047,0.0242 0.0244,-0.0138 0.008,-0.004 0.0164,-0.007 0.0243,-0.0115 0.0136,-0.008 0.0294,-0.0105 0.043,-0.0179 0.002,-0.001 0.009,-0.004 0.007,-0.003 -0.0316,0.0183 -0.12699,0.0722 -0.0953,0.054 0.0203,-0.0116 0.0833,-0.0529 0.12528,-0.0703 0.002,-0.001 0.005,-0.003 0.007,-0.004 -0.004,0.004 0.0202,-0.0103 0.0153,-0.007 -0.16888,0.0969 -0.12113,0.0719 -0.0853,0.0472 0.009,-0.007 0.0188,-0.0115 0.0264,-0.0193 0,0 0.11631,-0.0449 0.11631,-0.0449 v 0 c -0.0104,0.003 -0.017,0.0149 -0.0275,0.0187 -0.0459,0.0347 -0.0973,0.0619 -0.14919,0.0868 -0.009,0.004 -0.0147,0.008 -0.013,0.007 0.21503,-0.12561 0.0406,-0.0207 -0.0238,0.0124 -0.0145,0.005 -0.0288,0.0112 -0.0425,0.0183 -0.008,0.004 -0.016,0.007 -0.0238,0.0117 -0.003,0.002 -0.0111,0.006 -0.008,0.005 0.0567,-0.033 0.22228,-0.12844 -0.0162,0.009 -0.0138,0.008 -0.0282,0.0138 -0.0425,0.0206 -0.0126,0.007 -0.0258,0.0122 -0.0384,0.019 0.033,-0.0191 0.13217,-0.0759 0.0989,-0.0573 -0.0482,0.0271 -0.0933,0.0582 -0.14402,0.0798 -0.0436,0.0215 -0.12517,0.0654 0.0626,-0.0393 -0.0381,0.0263 -0.093,0.0543 -0.12259,0.0723 -0.033,0.0201 0.0666,-0.0391 0.10004,-0.0584 0.004,-0.002 -0.0173,0.0108 -0.0116,0.009 -0.0507,0.0284 -0.10031,0.0587 -0.1516,0.086 0.18602,-0.10805 0.10581,-0.0668 0.0705,-0.0377 -0.0416,0.0232 -0.0473,0.0264 -0.11812,0.0691 -0.0327,0.0197 0.0658,-0.0386 0.0988,-0.0577 0.002,-0.001 -0.005,0.003 -0.007,0.005 -0.0152,0.0112 0.001,7.9e-4 -0.0156,0.0109 -0.0147,0.0109 -0.0302,0.0207 -0.0452,0.0312 -0.0115,0.01 -0.0234,0.0184 -0.035,0.0279 -0.0158,0.01 -0.0291,0.0228 -0.0421,0.0359 -0.01,0.0107 -0.0189,0.0225 -0.0295,0.0324 -0.007,0.009 -0.0171,0.0173 -0.0259,0.0254 -0.009,0.01 -0.0203,0.018 -0.0314,0.0253 -0.009,0.008 -0.0174,0.0162 -0.026,0.0245 -0.007,0.01 -0.0159,0.0175 -0.0225,0.0274 -0.006,0.0113 -0.0165,0.0172 -0.0263,0.025 -0.0116,0.006 -0.018,0.0165 -0.0269,0.0253 -0.007,0.0111 -0.0152,0.0227 -0.0255,0.0311 -0.009,0.0101 -0.0198,0.0181 -0.0299,0.0266 -0.009,0.01 -0.0152,0.0209 -0.0252,0.0294 -0.0101,0.008 -0.0177,0.0183 -0.0263,0.0279 -0.006,0.0103 -0.0135,0.0195 -0.0206,0.0291 -0.003,0.01 -0.007,0.0172 -0.016,0.0224 -0.11267,0.065 -0.072,0.0509 -0.12137,0.0673 -0.0219,0.007 -0.0431,0.0167 -0.0647,0.0249 0,0 0.0973,-0.0769 0.0973,-0.0769 z"
       inkscape:connector-curvature="0" />
    <path
       style="opacity:1;fill:#000000;fill-opacity:1;stroke:#000000;stroke-width:0;stroke-miterlimit:4;stroke-dasharray:none"
       id="path4769"
       d="m 126.75162,120.49405 c 0.0104,0.0184 0.0221,0.0363 0.036,0.0522 0.008,0.0115 0.0182,0.0194 0.0287,0.0278 0.0119,0.006 0.0177,0.0184 0.0238,0.0298 0.007,0.0106 0.0142,0.0205 0.0234,0.029 0.009,0.009 0.0172,0.0182 0.0267,0.0264 0.0113,0.006 0.0192,0.0145 0.0276,0.0236 0.007,0.009 0.0145,0.0185 0.0231,0.0265 0.009,0.01 0.0142,0.0225 0.019,0.0346 0.006,0.0118 0.0116,0.0235 0.0198,0.0338 0.008,0.012 0.0191,0.0214 0.027,0.0335 0.009,0.0113 0.0157,0.0236 0.0246,0.0348 0.008,0.0106 0.0164,0.0212 0.0262,0.0302 0.0101,0.009 0.0175,0.0198 0.0237,0.0319 0.007,0.0134 0.0163,0.0248 0.0262,0.0361 0.0106,0.0127 0.0198,0.0264 0.0315,0.0381 0.0103,0.0106 0.0198,0.0219 0.0297,0.0331 0.0143,0.015 0.0279,0.0306 0.0423,0.0455 0.0121,0.0135 0.0253,0.0259 0.0384,0.0384 0.0124,0.0104 0.0254,0.0202 0.0367,0.0317 0.009,0.008 0.0178,0.0171 0.0271,0.0252 0.0109,0.0105 0.0218,0.0211 0.0318,0.0325 0.007,0.0115 0.0156,0.0221 0.0241,0.0326 0.0104,0.012 0.0192,0.0252 0.0301,0.0367 0.0123,0.0118 0.0245,0.0238 0.0357,0.0366 0.0104,0.0123 0.0187,0.0266 0.0254,0.0412 0.005,0.0111 0.0126,0.0202 0.02,0.0297 0.008,0.009 0.0166,0.0163 0.0243,0.025 0.009,0.008 0.0167,0.0166 0.0257,0.0244 0.0111,0.0105 0.02,0.0226 0.0305,0.0337 0.008,0.01 0.0149,0.0201 0.0238,0.0288 0.007,0.01 0.0164,0.0161 0.0255,0.0233 0.009,0.009 0.0158,0.0184 0.0245,0.0267 0.004,0.004 0.002,0.003 0.005,0.005 0,0 -0.10617,0.0657 -0.10617,0.0657 v 0 c -0.003,-0.004 -0.002,-0.002 -0.005,-0.006 -0.008,-0.008 -0.0152,-0.0174 -0.0237,-0.0253 -0.01,-0.007 -0.0187,-0.0154 -0.0264,-0.0249 -0.008,-0.009 -0.016,-0.0191 -0.0237,-0.029 -0.0102,-0.0107 -0.0185,-0.0231 -0.0299,-0.0326 -0.009,-0.008 -0.0177,-0.017 -0.0265,-0.0255 -0.008,-0.009 -0.0169,-0.0168 -0.0248,-0.0258 -0.008,-0.0102 -0.016,-0.0205 -0.0214,-0.0325 -0.006,-0.0137 -0.0136,-0.0268 -0.0233,-0.0381 -0.0113,-0.0128 -0.0235,-0.0245 -0.0357,-0.0364 -0.0105,-0.0121 -0.0198,-0.0252 -0.0304,-0.0372 -0.009,-0.0104 -0.0165,-0.021 -0.0239,-0.0322 -0.01,-0.0109 -0.0199,-0.0215 -0.031,-0.0311 -0.01,-0.008 -0.0181,-0.0175 -0.0275,-0.0259 -0.0116,-0.0111 -0.0241,-0.0212 -0.0362,-0.0317 -0.0135,-0.0125 -0.0265,-0.0254 -0.0388,-0.0391 -0.014,-0.0154 -0.0281,-0.0306 -0.0426,-0.0456 -0.01,-0.0109 -0.0196,-0.0219 -0.0296,-0.0326 -0.0113,-0.0123 -0.021,-0.0259 -0.0318,-0.0387 -0.0105,-0.012 -0.0202,-0.0244 -0.0278,-0.0385 -0.006,-0.0109 -0.0127,-0.0201 -0.0219,-0.0284 -0.01,-0.01 -0.0188,-0.0205 -0.0269,-0.0318 -0.009,-0.0116 -0.0167,-0.0238 -0.0252,-0.0355 -0.008,-0.0117 -0.0186,-0.0209 -0.0263,-0.0327 -0.009,-0.0113 -0.0155,-0.024 -0.0218,-0.0369 -0.004,-0.0106 -0.009,-0.0216 -0.0165,-0.03 -0.008,-0.009 -0.0161,-0.0178 -0.0234,-0.0272 -0.008,-0.009 -0.017,-0.0158 -0.0269,-0.0225 -0.009,-0.009 -0.018,-0.0177 -0.0268,-0.0268 -0.01,-0.01 -0.0183,-0.0204 -0.0254,-0.0322 -0.006,-0.0102 -0.0105,-0.0196 -0.0211,-0.0253 -0.0114,-0.009 -0.0213,-0.0186 -0.0297,-0.0303 -0.0136,-0.0168 -0.0252,-0.0351 -0.037,-0.0532 0,0 0.10702,-0.0627 0.10702,-0.0627 z"
       inkscape:connector-curvature="0" />
    <path
       style="opacity:1;fill:#000000;fill-opacity:1;stroke:#000000;stroke-width:0;stroke-miterlimit:4;stroke-dasharray:none"
       id="path4775"
       d="m 127.78767,119.73194 c 0.0125,0.017 0.0299,0.0293 0.0453,0.0436 0.0112,0.008 0.0222,0.0161 0.0334,0.0239 0.0128,0.01 0.0249,0.0206 0.0378,0.0303 0.0135,0.0109 0.0292,0.0183 0.0436,0.0279 0.0155,0.009 0.0301,0.0196 0.0439,0.0311 0.0156,0.0113 0.0307,0.0231 0.0474,0.0328 0.0168,0.01 0.0336,0.0192 0.0501,0.0294 0.0164,0.0112 0.0336,0.0212 0.0495,0.0332 0.0141,0.0113 0.0265,0.0245 0.0403,0.0362 0.0111,0.0118 0.0246,0.0209 0.0369,0.0314 0.0137,0.0121 0.0282,0.0233 0.0418,0.0355 0.0155,0.0118 0.0307,0.0239 0.0466,0.0351 0.0135,0.0105 0.0264,0.0219 0.039,0.0335 0.0161,0.0145 0.0306,0.0307 0.0471,0.0446 0.0128,0.0116 0.0257,0.0231 0.0377,0.0355 0.0109,0.01 0.0229,0.0178 0.0346,0.0263 0.0149,0.008 0.0294,0.0176 0.0442,0.026 0.0142,0.0102 0.029,0.0195 0.0426,0.0305 0.0124,0.009 0.0259,0.017 0.0376,0.0272 0.0109,0.009 0.0207,0.0183 0.0321,0.0262 0.0151,0.0108 0.0292,0.0227 0.0442,0.0336 0.0151,0.01 0.0295,0.0211 0.0445,0.0312 0.0129,0.0101 0.0256,0.0202 0.0381,0.0308 0.0142,0.0119 0.0274,0.0249 0.0416,0.0367 0.0142,0.0115 0.0273,0.0243 0.0407,0.0366 0.0153,0.0106 0.0288,0.0233 0.0428,0.0354 0.0123,0.009 0.0262,0.0156 0.0399,0.0224 0.015,0.008 0.0298,0.0169 0.0445,0.0257 0.0139,0.006 0.0258,0.0156 0.0386,0.0235 0.013,0.0103 0.027,0.0193 0.0398,0.0299 0.0108,0.009 0.0217,0.0169 0.0335,0.0241 0.002,0.001 0.004,0.003 0.006,0.004 0,0 -0.10451,0.0669 -0.10451,0.0669 v 0 c -0.002,-0.001 -0.004,-0.002 -0.006,-0.004 -0.0117,-0.008 -0.023,-0.0163 -0.0339,-0.0254 -0.0128,-0.01 -0.0261,-0.0191 -0.0391,-0.0287 -0.0126,-0.008 -0.0251,-0.0163 -0.0385,-0.0232 -0.0143,-0.009 -0.0291,-0.0169 -0.0439,-0.0247 -0.0147,-0.007 -0.0288,-0.0152 -0.0415,-0.0253 -0.014,-0.0122 -0.0279,-0.0246 -0.0429,-0.0357 -0.0135,-0.0121 -0.0263,-0.025 -0.0406,-0.0362 -0.0139,-0.0122 -0.0274,-0.0247 -0.0416,-0.0365 -0.0124,-0.0101 -0.0246,-0.0203 -0.0373,-0.03 -0.0149,-0.0106 -0.0301,-0.0208 -0.045,-0.0315 -0.0146,-0.0113 -0.029,-0.0228 -0.0442,-0.0334 -0.0113,-0.009 -0.0218,-0.0178 -0.0327,-0.0268 -0.012,-0.01 -0.0252,-0.0176 -0.0372,-0.027 -0.0134,-0.0103 -0.0275,-0.0198 -0.0415,-0.0292 -0.015,-0.009 -0.0304,-0.0173 -0.0451,-0.0268 -0.0123,-0.009 -0.0247,-0.0177 -0.0357,-0.0281 -0.012,-0.012 -0.0243,-0.0236 -0.0368,-0.035 -0.0162,-0.0145 -0.0311,-0.0303 -0.0474,-0.0446 -0.0125,-0.0111 -0.0251,-0.0222 -0.0384,-0.0323 -0.0158,-0.0119 -0.0317,-0.0237 -0.047,-0.0362 -0.0138,-0.012 -0.0283,-0.0229 -0.0419,-0.035 -0.0126,-0.0103 -0.0258,-0.0199 -0.0371,-0.0317 -0.0131,-0.0119 -0.0256,-0.0245 -0.0396,-0.0354 -0.0158,-0.0115 -0.0325,-0.0216 -0.0488,-0.0323 -0.0166,-0.01 -0.0333,-0.0196 -0.0501,-0.0293 -0.0168,-0.0105 -0.0326,-0.0222 -0.0484,-0.0342 -0.0138,-0.0109 -0.0282,-0.0208 -0.0432,-0.0299 -0.015,-0.009 -0.0308,-0.0174 -0.0444,-0.0287 -0.0125,-0.0101 -0.0249,-0.0204 -0.0379,-0.0298 -0.0112,-0.008 -0.0232,-0.0161 -0.0338,-0.0254 -0.0155,-0.0144 -0.0319,-0.0278 -0.0458,-0.0438 0,0 0.10579,-0.0648 0.10579,-0.0648 z"
       inkscape:connector-curvature="0" />
    <path
       style="opacity:1;fill:#000000;fill-opacity:1;stroke:#000000;stroke-width:0;stroke-miterlimit:4;stroke-dasharray:none"
       id="path4777"
       d="m 129.07964,120.66528 c -2.5e-4,0.0181 0.007,0.0334 0.0171,0.0475 0.009,0.009 0.0207,0.0143 0.0321,0.0201 0.0141,0.01 0.0302,0.0155 0.045,0.0236 0.0143,0.008 0.0293,0.0144 0.0429,0.0233 0.0115,0.007 0.0226,0.0154 0.0345,0.0224 0.0101,0.007 0.0184,0.0162 0.0278,0.0241 0.008,0.008 0.0163,0.0173 0.0252,0.0251 0.008,0.009 0.0178,0.0176 0.0272,0.026 0.0119,0.0101 0.0252,0.0182 0.0374,0.0277 0.014,0.01 0.0276,0.0199 0.0405,0.0308 0.0124,0.009 0.0237,0.0203 0.0365,0.0292 0.0119,0.01 0.0247,0.0189 0.0377,0.0275 0.0126,0.008 0.024,0.0168 0.0359,0.0254 0.0124,0.007 0.0239,0.0152 0.0348,0.0242 0.0139,0.0122 0.0292,0.0227 0.0445,0.0329 0.0135,0.005 0.0261,0.0125 0.0393,0.0186 0.0127,0.008 0.025,0.0161 0.0376,0.0241 0.01,0.0104 0.0231,0.016 0.035,0.0234 0.0118,0.006 0.0219,0.015 0.0322,0.0233 0.0116,0.0101 0.0217,0.0217 0.033,0.0321 0.0108,0.009 0.0222,0.0162 0.0342,0.0231 0.0105,0.008 0.0202,0.016 0.0288,0.0257 0.009,0.009 0.0195,0.0181 0.0285,0.0278 0.0108,0.01 0.0218,0.0188 0.0334,0.0272 0.0105,0.009 0.0208,0.018 0.0299,0.0284 0.009,0.0132 0.0206,0.0237 0.032,0.0345 0.0108,0.008 0.0188,0.0185 0.0304,0.025 0.0106,0.007 0.0204,0.0149 0.0291,0.0243 0.006,0.008 0.003,0.004 0.008,0.0103 0,0 -0.10672,0.0638 -0.10672,0.0638 v 0 c -0.005,-0.006 -0.002,-0.003 -0.007,-0.009 -0.008,-0.008 -0.0178,-0.0152 -0.0276,-0.0218 -0.0112,-0.008 -0.0206,-0.0183 -0.0314,-0.027 -0.0119,-0.011 -0.0229,-0.0225 -0.0328,-0.0353 -0.009,-0.01 -0.0186,-0.0181 -0.0285,-0.0264 -0.0119,-0.009 -0.0239,-0.0185 -0.0347,-0.0289 -0.009,-0.01 -0.0191,-0.0186 -0.0286,-0.028 -0.008,-0.009 -0.0171,-0.0162 -0.0269,-0.0227 -0.0123,-0.008 -0.0245,-0.0156 -0.0354,-0.0253 -0.011,-0.0102 -0.0207,-0.0219 -0.0326,-0.0312 -0.0101,-0.008 -0.0198,-0.0162 -0.0313,-0.022 -0.0125,-0.007 -0.0245,-0.0145 -0.0353,-0.0239 -0.0119,-0.008 -0.0241,-0.0157 -0.0367,-0.0228 -0.0134,-0.007 -0.0273,-0.0127 -0.0402,-0.0203 -0.0153,-0.0109 -0.0308,-0.0214 -0.045,-0.0337 -0.0112,-0.009 -0.0232,-0.016 -0.0349,-0.0238 -0.0115,-0.009 -0.0233,-0.0172 -0.0355,-0.025 -0.0128,-0.009 -0.0257,-0.0177 -0.0377,-0.0278 -0.0127,-0.01 -0.0246,-0.02 -0.0369,-0.03 -0.013,-0.0106 -0.0264,-0.0206 -0.0403,-0.0301 -0.0128,-0.009 -0.0258,-0.0183 -0.0379,-0.0285 -0.01,-0.008 -0.019,-0.0168 -0.0276,-0.0261 -0.008,-0.008 -0.0166,-0.0166 -0.025,-0.0248 -0.009,-0.008 -0.0169,-0.0159 -0.0266,-0.0223 -0.0115,-0.007 -0.0228,-0.0151 -0.0342,-0.0225 -0.0138,-0.008 -0.0283,-0.0151 -0.0424,-0.0226 -0.0152,-0.007 -0.0303,-0.0149 -0.045,-0.0232 -0.0131,-0.006 -0.0257,-0.014 -0.0351,-0.0252 -0.0117,-0.0163 -0.0191,-0.0341 -0.021,-0.0543 0,0 0.11056,-0.0563 0.11056,-0.0563 z"
       inkscape:connector-curvature="0" />
    <path
       style="opacity:1;fill:#000000;fill-opacity:1;stroke:#000000;stroke-width:0;stroke-miterlimit:4;stroke-dasharray:none"
       id="path4783"
       d="m 127.65437,121.55069 c 0.0168,0.0132 0.0329,0.0272 0.0495,0.0405 0.0126,0.01 0.0257,0.0185 0.037,0.0297 0.0112,0.009 0.0214,0.0196 0.0323,0.0293 0.0102,0.0124 0.0218,0.0235 0.0327,0.0353 0.009,0.0114 0.0179,0.0234 0.0284,0.0337 0.007,0.01 0.0168,0.0165 0.0261,0.0239 0.0102,0.007 0.0191,0.015 0.0285,0.0227 0.0106,0.009 0.0191,0.0205 0.0269,0.0322 0.008,0.009 0.0149,0.019 0.0221,0.0287 0.006,0.01 0.0136,0.0189 0.022,0.0267 0.008,0.008 0.0159,0.0173 0.0247,0.025 0.007,0.01 0.017,0.0159 0.0262,0.0232 0.0102,0.007 0.0191,0.0151 0.0285,0.0228 0.0124,0.008 0.0237,0.0177 0.0361,0.0259 0.0121,0.008 0.0225,0.0187 0.0338,0.028 0.0106,0.0105 0.0221,0.0202 0.033,0.0304 0.013,0.0103 0.0252,0.0214 0.038,0.032 0.0123,0.009 0.024,0.0196 0.0363,0.0291 0.0109,0.009 0.019,0.0204 0.0294,0.0298 0.0108,0.011 0.0228,0.0207 0.0333,0.032 0.009,0.009 0.0186,0.0177 0.0271,0.0273 0.008,0.008 0.0172,0.0163 0.0251,0.0251 0.008,0.008 0.0172,0.0162 0.025,0.025 0.0106,0.009 0.0214,0.0185 0.0328,0.0268 0.0104,0.008 0.0195,0.0181 0.0296,0.0268 0.008,0.009 0.0168,0.0178 0.0271,0.0245 0.0109,0.008 0.0204,0.0171 0.0308,0.0255 0.008,0.009 0.0156,0.0196 0.023,0.0297 0.009,0.008 0.0154,0.0179 0.0227,0.0273 0.007,0.01 0.0137,0.0188 0.0221,0.0267 0.008,0.008 0.0159,0.0173 0.0247,0.025 0.009,0.0103 0.0204,0.0165 0.0293,0.0265 0.01,0.009 0.0194,0.0192 0.0314,0.0256 0.0111,0.007 0.0205,0.0152 0.0306,0.0231 0.008,0.009 0.0191,0.0142 0.0281,0.0221 0.009,0.007 0.0186,0.0155 0.0268,0.0244 0.006,0.005 0.0103,0.0107 0.017,0.0145 0,0 -0.10465,0.067 -0.10465,0.067 v 0 c -0.007,-0.005 -0.0125,-0.0109 -0.0185,-0.0168 -0.008,-0.008 -0.0167,-0.016 -0.0259,-0.0231 -0.009,-0.007 -0.0198,-0.0133 -0.0281,-0.022 -0.009,-0.008 -0.019,-0.0154 -0.0296,-0.0218 -0.0122,-0.008 -0.0232,-0.018 -0.0333,-0.0285 -0.009,-0.009 -0.0207,-0.0155 -0.0289,-0.0256 -0.009,-0.008 -0.0169,-0.0168 -0.025,-0.0254 -0.008,-0.009 -0.0163,-0.0181 -0.0231,-0.0283 -0.007,-0.01 -0.0145,-0.0187 -0.0227,-0.0274 -0.007,-0.009 -0.0135,-0.0189 -0.0215,-0.0273 -0.01,-0.009 -0.0195,-0.017 -0.0301,-0.0246 -0.0102,-0.008 -0.0192,-0.0165 -0.0281,-0.0257 -0.009,-0.009 -0.0188,-0.0179 -0.0288,-0.026 -0.0117,-0.009 -0.0236,-0.0182 -0.0342,-0.0285 -0.008,-0.009 -0.0167,-0.0167 -0.025,-0.025 -0.008,-0.009 -0.0168,-0.0167 -0.025,-0.0251 -0.009,-0.009 -0.0179,-0.0182 -0.0268,-0.0272 -0.0105,-0.011 -0.0221,-0.0206 -0.0328,-0.0314 -0.01,-0.01 -0.0185,-0.0202 -0.0291,-0.0289 -0.0119,-0.01 -0.024,-0.0197 -0.0362,-0.0293 -0.0129,-0.0106 -0.0251,-0.0222 -0.0381,-0.0327 -0.0111,-0.01 -0.0227,-0.0193 -0.0332,-0.0297 -0.0106,-0.009 -0.0212,-0.0188 -0.0328,-0.027 -0.0124,-0.009 -0.0245,-0.0178 -0.0369,-0.0266 -0.009,-0.008 -0.0183,-0.0158 -0.0284,-0.0224 -0.01,-0.007 -0.0186,-0.0152 -0.0268,-0.0241 -0.009,-0.008 -0.0169,-0.0168 -0.025,-0.0254 -0.008,-0.009 -0.0164,-0.0182 -0.023,-0.0285 -0.007,-0.01 -0.0144,-0.0197 -0.0223,-0.0292 -0.007,-0.0107 -0.0148,-0.0208 -0.0249,-0.029 -0.009,-0.008 -0.0183,-0.0157 -0.0284,-0.0224 -0.0101,-0.007 -0.0191,-0.0158 -0.027,-0.0255 -0.01,-0.0109 -0.019,-0.0226 -0.0283,-0.0342 -0.0107,-0.0115 -0.0219,-0.0226 -0.0323,-0.0344 -0.0106,-0.01 -0.0215,-0.0198 -0.0324,-0.0296 -0.0114,-0.0106 -0.0243,-0.0192 -0.0363,-0.0291 -0.0159,-0.0137 -0.0317,-0.0275 -0.0491,-0.0393 0,0 0.10447,-0.0669 0.10447,-0.0669 z"
       inkscape:connector-curvature="0" />
    <path
       style="opacity:1;fill:#000000;fill-opacity:1;stroke:#000000;stroke-width:0;stroke-miterlimit:4;stroke-dasharray:none"
       id="path4883"
       d="m 128.7151,122.5613 c 0.0159,0.0145 0.0352,0.0245 0.052,0.0377 0.0133,0.008 0.0235,0.0198 0.035,0.0301 0.009,0.009 0.0168,0.0181 0.026,0.0263 0.0113,0.007 0.022,0.0143 0.0302,0.0248 0.0107,0.009 0.0125,0.0236 0.0207,0.0341 0.009,0.009 0.015,0.0193 0.0211,0.0303 0.005,0.0102 0.0138,0.0183 0.0216,0.0267 0.01,0.009 0.0196,0.0176 0.0299,0.0256 0.01,0.009 0.0181,0.0202 0.0298,0.0272 0.0108,0.009 0.0224,0.0173 0.0326,0.0272 0.0104,0.009 0.0193,0.0197 0.031,0.0276 0.0116,0.009 0.0223,0.0186 0.0346,0.0262 0.0126,0.006 0.0248,0.013 0.0351,0.0223 0.0103,0.006 0.0196,0.0137 0.0294,0.0206 0.008,0.009 0.018,0.0154 0.0273,0.0228 0.01,0.007 0.0196,0.0146 0.028,0.0234 0.008,0.008 0.0171,0.0152 0.027,0.0214 0.007,0.003 0.0122,0.008 0.02,0.009 0,0 -0.10288,0.07 -0.10288,0.07 v 0 c -0.007,-0.004 -0.0146,-0.008 -0.0218,-0.012 -0.0101,-0.007 -0.0198,-0.0145 -0.0284,-0.0235 -0.008,-0.008 -0.0174,-0.0154 -0.027,-0.0219 -0.01,-0.007 -0.0184,-0.0148 -0.0273,-0.0227 -0.01,-0.007 -0.0201,-0.0139 -0.0298,-0.0214 -0.0106,-0.008 -0.0223,-0.0147 -0.0341,-0.0211 -0.0121,-0.008 -0.0231,-0.0179 -0.0348,-0.0267 -0.0117,-0.009 -0.0215,-0.0191 -0.0321,-0.0289 -0.01,-0.009 -0.0207,-0.0174 -0.0315,-0.0256 -0.0111,-0.008 -0.0204,-0.0186 -0.0304,-0.0281 -0.0105,-0.009 -0.0213,-0.0175 -0.0311,-0.0272 -0.008,-0.009 -0.0177,-0.0177 -0.0229,-0.029 -0.006,-0.0105 -0.0119,-0.0203 -0.0204,-0.029 -0.008,-0.0109 -0.0103,-0.0243 -0.0203,-0.0337 -0.008,-0.01 -0.0197,-0.0152 -0.0294,-0.0232 -0.009,-0.009 -0.0172,-0.0176 -0.0259,-0.0263 -0.0109,-0.0104 -0.0215,-0.021 -0.0341,-0.0293 -0.0169,-0.0128 -0.035,-0.0239 -0.0518,-0.0368 0,0 0.10447,-0.0669 0.10447,-0.0669 z"
       inkscape:connector-curvature="0" />
    <path
       style="opacity:1;fill:#000000;fill-opacity:1;stroke:#000000;stroke-width:0;stroke-miterlimit:4;stroke-dasharray:none"
       id="path4887"
       d="m 130.00968,121.4087 c 0.0208,0.0158 0.0411,0.0322 0.0632,0.0461 0.0146,0.009 0.0274,0.0204 0.0408,0.031 0.0105,0.006 0.0206,0.0134 0.0294,0.0219 0.009,0.008 0.0178,0.0159 0.0257,0.0248 0.009,0.008 0.0167,0.0179 0.0257,0.0261 0.0116,0.009 0.0229,0.0182 0.0346,0.027 0.01,0.009 0.0183,0.018 0.0292,0.025 0.0106,0.009 0.0188,0.0198 0.0286,0.0293 0.0102,0.009 0.0212,0.0157 0.0328,0.0224 0.0104,0.007 0.0189,0.0161 0.0285,0.0241 0.009,0.009 0.0175,0.0172 0.0255,0.0267 0.008,0.0108 0.0155,0.0218 0.0249,0.0312 0.008,0.009 0.0159,0.0179 0.0249,0.0257 0.009,0.0101 0.0183,0.0207 0.0286,0.0299 0.01,0.009 0.0157,0.0224 0.0269,0.0305 0.008,0.009 0.019,0.0143 0.0287,0.0214 0.0105,0.006 0.0195,0.0148 0.029,0.0226 0.01,0.009 0.0185,0.0196 0.0285,0.0287 0.008,0.0108 0.0171,0.0209 0.0268,0.0305 0.0105,0.008 0.0193,0.0186 0.0297,0.0272 0.009,0.009 0.0177,0.018 0.0273,0.0263 0.0103,0.009 0.0185,0.0192 0.0269,0.0298 0.01,0.009 0.0187,0.019 0.0291,0.0275 0.007,0.006 0.0132,0.0123 0.0186,0.0199 0,0 -0.10698,0.0631 -0.10698,0.0631 v 0 c -0.005,-0.007 -0.011,-0.0117 -0.0169,-0.0174 -0.0106,-0.009 -0.0207,-0.0193 -0.0304,-0.0296 -0.008,-0.0102 -0.0162,-0.0193 -0.0259,-0.0279 -0.009,-0.009 -0.0179,-0.0176 -0.027,-0.0261 -0.0102,-0.009 -0.0197,-0.0189 -0.0301,-0.0278 -0.01,-0.01 -0.0178,-0.0201 -0.0267,-0.0303 -0.009,-0.009 -0.0182,-0.019 -0.028,-0.0279 -0.009,-0.007 -0.0183,-0.0156 -0.0286,-0.0218 -0.0103,-0.007 -0.02,-0.0141 -0.0292,-0.0223 -0.0103,-0.009 -0.0173,-0.0214 -0.0271,-0.0312 -0.01,-0.01 -0.0193,-0.0198 -0.0288,-0.0297 -0.009,-0.008 -0.0172,-0.0173 -0.0252,-0.0264 -0.009,-0.01 -0.0172,-0.0208 -0.0251,-0.0318 -0.008,-0.009 -0.0163,-0.0169 -0.0247,-0.0252 -0.009,-0.008 -0.0173,-0.0159 -0.0272,-0.0223 -0.012,-0.008 -0.0238,-0.0152 -0.0342,-0.0248 -0.009,-0.009 -0.017,-0.0198 -0.0275,-0.0276 -0.0105,-0.008 -0.0198,-0.0169 -0.0296,-0.0256 -0.0117,-0.009 -0.0238,-0.0183 -0.0352,-0.028 -0.009,-0.009 -0.0171,-0.0183 -0.0263,-0.0267 -0.008,-0.008 -0.0165,-0.0164 -0.0252,-0.0239 -0.009,-0.008 -0.0191,-0.0145 -0.0289,-0.0214 -0.0126,-0.0108 -0.0254,-0.0211 -0.0392,-0.0304 -0.0217,-0.0147 -0.042,-0.0314 -0.064,-0.0458 0,0 0.10447,-0.0669 0.10447,-0.0669 z"
       inkscape:connector-curvature="0" />
    <path
       style="opacity:1;fill:#000000;fill-opacity:1;stroke:#000000;stroke-width:0;stroke-miterlimit:4;stroke-dasharray:none"
       id="path4889"
       d="m 129.27365,123.03036 c 0.0232,5.3e-4 0.0465,2.6e-4 0.0697,1.9e-4 0.0185,-7e-5 0.0369,-1e-4 0.0554,-1.2e-4 0.0162,-10e-4 0.0329,0.002 0.0487,-0.002 0.0131,-0.005 0.0261,-0.002 0.0395,-2.3e-4 0.0153,0.003 0.0298,-2.6e-4 0.0449,-0.003 0.0167,-0.003 0.0336,-0.003 0.0504,-0.003 0.014,-0.004 0.0285,-0.006 0.0431,-0.008 0.0131,-0.006 0.0277,-0.006 0.0412,-0.01 0.0155,-0.002 0.0297,-0.008 0.0447,-0.012 0.0142,-0.002 0.027,-0.007 0.0411,-0.01 0.0144,-5.2e-4 0.0275,-0.006 0.0416,-0.008 0.0139,-0.002 0.027,-0.008 0.0402,-0.0124 0.003,-7.9e-4 0.005,-10e-4 0.008,-0.002 0.005,-0.003 0.007,-0.004 0.0129,-0.006 0.007,-0.003 0.0134,-0.003 0.02,-0.007 0.0131,-0.006 0.0277,-0.009 0.0403,-0.0155 0.012,-0.006 0.0255,-0.01 0.0364,-0.0171 0.0109,-0.006 0.0234,-0.01 0.0335,-0.0168 0.0473,-0.0241 -0.12681,0.0728 -0.0949,0.055 0.0377,-0.0211 0.0751,-0.043 0.1126,-0.0645 0.002,-0.001 0.009,-0.005 0.007,-0.004 -0.0329,0.0189 -0.0656,0.038 -0.0986,0.0567 -0.003,0.002 0.005,-0.003 0.008,-0.005 0.0146,-0.0104 0.0278,-0.0226 0.0429,-0.0323 0.38024,-0.22144 -0.23597,0.13754 0.12924,-0.0752 0.0336,-0.0196 -0.0673,0.0391 -0.10114,0.0583 -0.002,0.001 0.003,-0.002 0.005,-0.004 0.0372,-0.0215 0.0744,-0.043 0.11166,-0.0645 0.004,-0.002 0.0168,-0.008 0.0127,-0.006 -0.0333,0.0194 -0.13289,0.0779 -0.10032,0.0573 0.004,-0.002 0.27657,-0.15953 0.0117,-0.007 0.006,-0.004 0.0111,-0.009 0.0172,-0.0123 0.37329,-0.21552 -0.24763,0.14233 0.12518,-0.0715 -0.18012,0.1096 -0.10944,0.0652 -0.0711,0.0373 0.30297,-0.17426 0.008,-0.005 0.0112,-0.007 0.0364,-0.0229 0.0748,-0.0426 0.11164,-0.0647 0.0334,-0.02 -0.0673,0.0391 -0.10113,0.0584 -0.002,10e-4 0.003,-0.003 0.005,-0.004 0.0371,-0.0217 0.0744,-0.0431 0.11162,-0.0647 -0.19295,0.1026 -0.1112,0.0717 -0.0773,0.0408 0.0106,-0.008 0.0194,-0.0186 0.0283,-0.0287 0.0119,-0.0121 0.0233,-0.0247 0.0371,-0.0347 0.0108,-0.007 0.0206,-0.0157 0.0307,-0.0239 0.009,-0.01 0.0205,-0.0174 0.0313,-0.0252 0.009,-0.009 0.0206,-0.0143 0.0305,-0.0221 0.009,-0.007 0.0182,-0.015 0.0263,-0.0235 0.0105,-0.01 0.0223,-0.018 0.034,-0.0262 0.0113,-0.007 0.0224,-0.0151 0.0322,-0.0242 0.009,-0.008 0.0168,-0.0172 0.0269,-0.0239 0.0101,-0.007 0.0192,-0.0148 0.0285,-0.0225 0.0108,-0.008 0.0213,-0.0161 0.0318,-0.0244 0.009,-0.008 0.0173,-0.0166 0.0261,-0.0247 0.01,-0.008 0.0162,-0.019 0.0246,-0.0283 0.01,-0.009 0.0197,-0.0172 0.029,-0.0265 0.009,-0.007 0.0167,-0.0165 0.0238,-0.0259 0.006,-0.0108 0.0124,-0.021 0.0194,-0.0311 0.008,-0.009 0.0152,-0.0179 0.0223,-0.0274 0.007,-0.0108 0.009,-0.0238 0.014,-0.0358 0.007,-0.0109 0.01,-0.0236 0.014,-0.0357 0.005,-0.0134 0.007,-0.0277 0.008,-0.0419 7.9e-4,-0.0164 7.9e-4,-0.0329 7.9e-4,-0.0493 5.3e-4,-0.0129 -0.002,-0.0254 -0.009,-0.036 -0.001,-7.9e-4 -0.002,-0.002 -0.004,-0.003 0,0 0.10559,-0.0655 0.10559,-0.0655 v 0 c 0.002,0.002 0.003,0.003 0.005,0.005 0.009,0.0128 0.0133,0.0272 0.0125,0.0428 3e-5,0.0166 1.1e-4,0.0333 -2.7e-4,0.0499 -5.3e-4,0.0151 -0.001,0.0305 -0.006,0.045 -0.001,0.004 -0.003,0.008 -0.005,0.0118 -0.003,0.009 -0.003,0.018 -0.009,0.0256 -0.008,0.011 -0.008,0.0246 -0.0135,0.0369 -0.006,0.0106 -0.0133,0.0201 -0.0216,0.029 -0.009,0.008 -0.0154,0.0188 -0.0201,0.0295 -0.006,0.0108 -0.0135,0.0205 -0.0226,0.0291 -0.0104,0.008 -0.0191,0.018 -0.0292,0.0264 -0.0108,0.008 -0.0154,0.0186 -0.0249,0.0271 -0.007,0.009 -0.0171,0.0173 -0.0259,0.0255 -0.009,0.01 -0.0203,0.0181 -0.0315,0.0253 -0.01,0.008 -0.0181,0.0162 -0.0283,0.0228 -0.0101,0.009 0.001,-2.6e-4 -0.01,0.006 -0.007,0.004 -0.0114,0.0117 -0.0172,0.017 -0.011,0.008 -0.0201,0.0186 -0.0318,0.026 -0.0124,0.007 -0.0232,0.0157 -0.0345,0.0239 -0.009,0.007 -0.0169,0.0169 -0.0258,0.0248 -0.0104,0.007 -0.0196,0.0155 -0.0309,0.0211 -0.009,0.01 -0.0212,0.0158 -0.0315,0.0244 -0.008,0.0101 -0.0196,0.0181 -0.0304,0.0255 -0.006,0.005 -0.0137,0.009 -0.0197,0.0144 -0.002,0.002 -0.004,0.004 -0.006,0.006 -0.002,0.002 -0.004,0.004 -0.006,0.006 -0.002,0.002 -0.004,0.004 -0.007,0.005 -0.009,0.0101 -0.0175,0.0208 -0.0272,0.0303 -0.0155,0.0113 0.006,-0.005 -0.009,0.008 -0.0337,0.0295 -0.12531,0.0529 -0.12591,0.0754 0.26347,-0.15365 -0.009,0.006 -0.0152,0.0102 -0.0316,0.0225 0.13436,-0.0776 0.10068,-0.0584 -0.04,0.0229 -0.24343,0.14136 -0.0114,0.006 -0.0478,0.0286 -0.0772,0.0756 -0.14117,0.0858 0.2583,-0.14929 -0.002,0.001 -0.0124,0.007 -0.0341,0.0176 0.0664,-0.0385 0.0995,-0.0578 0.0187,-0.0109 -0.0382,0.0216 -0.0174,0.0114 -0.0371,0.022 -0.0762,0.0409 -0.1113,0.0659 -0.0314,0.0223 0.13388,-0.0762 0.10001,-0.0579 -0.038,0.0206 -0.0749,0.0431 -0.11245,0.0646 -0.004,0.002 -0.0165,0.009 -0.0125,0.007 0.0335,-0.0196 0.0672,-0.0391 0.10078,-0.0587 -0.0379,0.0241 -0.0792,0.043 -0.11605,0.0687 -0.0318,0.0222 0.13453,-0.0771 0.10065,-0.0583 -0.37593,0.20902 0.0724,-0.0343 -0.0179,0.01 -0.0141,0.011 -0.0301,0.0198 -0.0432,0.0324 -0.0417,0.0327 -0.006,0.005 -0.12054,0.072 -0.002,10e-4 -0.009,0.005 -0.007,0.004 0.0332,-0.0193 0.13344,-0.0766 0.0999,-0.0578 -0.0376,0.0211 -0.0748,0.0431 -0.11218,0.0647 -0.002,0.001 -0.004,0.002 -0.005,0.003 -0.0115,0.005 -0.0224,0.0111 -0.0336,0.0166 -0.0124,0.005 -0.0243,0.0114 -0.0369,0.0161 -0.0137,0.005 -0.0271,0.01 -0.0406,0.0152 -0.0139,0.004 -0.0269,0.0104 -0.0408,0.0146 -0.0134,0.005 -0.0272,0.009 -0.0413,0.0111 -0.0138,0.003 -0.0275,0.007 -0.0415,0.009 -0.0135,0.004 -0.0269,0.008 -0.0406,0.0106 -0.0148,0.005 -0.0299,0.008 -0.0449,0.0115 -0.0142,0.003 -0.028,0.006 -0.0422,0.009 -0.0146,0.002 -0.0288,0.006 -0.0435,0.007 -0.0166,8e-4 -0.0332,0.002 -0.0496,0.005 -0.0157,0.002 -0.0312,0.003 -0.047,2.7e-4 -0.0129,-10e-4 -0.025,-5.3e-4 -0.0377,0.003 -0.0165,5.3e-4 -0.033,1.4e-4 -0.0496,2.7e-4 -0.0184,-2e-5 -0.0367,-5e-5 -0.0551,-1.2e-4 -0.0234,-8e-5 -0.0468,-2.5e-4 -0.0702,2e-4 0,0 0.10038,-0.0729 0.10038,-0.0729 z"
       inkscape:connector-curvature="0" />
  </g>
</svg>
