<?xml version="1.0" encoding="UTF-8" standalone="no"?>
<!-- Created with Inkscape (http://www.inkscape.org/) -->

<svg
   xmlns:dc="http://purl.org/dc/elements/1.1/"
   xmlns:cc="http://creativecommons.org/ns#"
   xmlns:rdf="http://www.w3.org/1999/02/22-rdf-syntax-ns#"
   xmlns:svg="http://www.w3.org/2000/svg"
   xmlns="http://www.w3.org/2000/svg"
   xmlns:sodipodi="http://sodipodi.sourceforge.net/DTD/sodipodi-0.dtd"
   xmlns:inkscape="http://www.inkscape.org/namespaces/inkscape"
   width="210mm"
   height="297mm"
   viewBox="0 0 210 297"
   version="1.1"
   id="svg8"
   inkscape:version="0.92.3 (2405546, 2018-03-11)"
   sodipodi:docname="logo.svg">
  <defs
     id="defs2" />
  <sodipodi:namedview
     id="base"
     pagecolor="#ffffff"
     bordercolor="#666666"
     borderopacity="1.0"
     inkscape:pageopacity="0.0"
     inkscape:pageshadow="2"
     inkscape:zoom="0.98994949"
     inkscape:cx="246.92744"
     inkscape:cy="531.38017"
     inkscape:document-units="mm"
     inkscape:current-layer="layer1"
     showgrid="true"
     inkscape:window-width="1858"
     inkscape:window-height="1057"
     inkscape:window-x="54"
     inkscape:window-y="-8"
     inkscape:window-maximized="1" />
  <metadata
     id="metadata5">
    <rdf:RDF>
      <cc:Work
         rdf:about="">
        <dc:format>image/svg+xml</dc:format>
        <dc:type
           rdf:resource="http://purl.org/dc/dcmitype/StillImage" />
        <dc:title />
      </cc:Work>
    </rdf:RDF>
  </metadata>
  <g
     inkscape:label="Layer 1"
     inkscape:groupmode="layer"
     id="layer1">
    <path
       style="fill:none;stroke:#000000;stroke-width:0.43070099px;stroke-linecap:butt;stroke-linejoin:miter;stroke-opacity:1"
       d="m 1.514489,72.05213 c 10.038176,-0.0021 10.944776,9.656585 16.994054,13.83319 0.764772,0.528006 1.769713,0.692538 2.565126,1.18068 1.006127,0.617481 1.559002,1.743928 2.565124,2.361393 0.795413,0.488158 1.769719,0.692538 2.565128,1.180696 1.006126,0.617481 1.558999,1.743912 2.565126,2.361393 0.795409,0.488158 1.769715,0.692523 2.565123,1.180697 0.503066,0.308724 0.708982,1.004683 1.282562,1.18068 0.811166,0.248914 1.75396,-0.248913 2.565128,0 0.694173,0.213002 3.005078,3.024954 3.847688,3.542088 0.795411,0.488159 1.769713,0.692522 2.565122,1.180683 1.764426,1.08286 1.319095,1.82148 2.565128,3.54209 0.362422,0.50045 3.317029,3.29783 3.847689,3.54208 0.382384,0.17599 0.926842,-0.21832 1.28256,0 1.006127,0.61748 1.559003,1.7439 2.565129,2.36139 0.355719,0.21831 0.876978,-0.1245 1.282562,0 0.906909,0.27829 1.769712,0.69252 2.565126,1.18067 0.503062,0.30874 0.708984,1.00468 1.282561,1.18071 0.811162,0.2489 1.735612,-0.1909 2.565124,0 0.927424,0.21343 1.658216,0.9024 2.565126,1.1807 0.405584,0.12449 0.900178,-0.176 1.282562,0 0.540777,0.24891 0.855042,0.78711 1.282565,1.18068 0.427521,0.39356 0.855042,0.78714 1.282563,1.1807 1.710081,1.57426 3.420168,3.14852 5.13025,4.72277 2.992648,2.75495 5.985291,5.5099 8.97794,8.26485 0.427517,0.39356 0.855038,0.78714 1.282559,1.18069 0.427521,0.39355 1.012177,0.68289 1.282565,1.18068 0.191191,0.35202 -0.191193,0.82869 0,1.18073 0.270385,0.4978 0.855042,0.7871 1.282563,1.18068 1.007797,0.92774 6.004334,5.15139 6.412812,5.90345 0.191193,0.35202 -0.19119,0.82868 0,1.1807 0.342499,0.63058 3.172459,2.92049 3.847691,3.54208 5.130252,4.72277 10.260495,9.44556 15.390745,14.16833 1.71009,1.57423 3.42016,3.14851 5.13026,4.72276 0.42752,0.39356 0.85504,0.78712 1.28256,1.1807 0.42752,0.39356 0.7418,0.93177 1.28255,1.18068 0.38241,0.17601 0.9002,-0.17599 1.28258,0 0.54076,0.24891 0.74179,0.93179 1.28256,1.18069 0.38238,0.17603 0.90017,-0.176 1.28256,0 1.26207,0.58091 3.86816,4.14186 5.13025,4.72277 0.38238,0.17602 0.85505,0 1.28256,0 0.85504,0.39358 1.80037,0.65268 2.56513,1.1807 0.96736,0.66791 1.71008,1.57426 2.56511,2.36139 0.42754,0.39356 0.709,1.00469 1.28258,1.18069 0.81115,0.24891 1.75396,-0.24891 2.56513,0 0.57356,0.17601 0.74177,0.93179 1.28255,1.18071 0.38239,0.176 0.90018,-0.17603 1.28255,0 0.54079,0.2489 0.709,1.00468 1.28258,1.1807 0.81116,0.2489 1.75395,-0.24892 2.56512,0 0.9732,0.29861 3.95151,4.18018 5.13026,4.72276 0.38237,0.176 0.87696,-0.12449 1.28255,0 0.9069,0.2783 1.65821,0.9024 2.56513,1.18069 0.40558,0.12449 0.90018,-0.17599 1.28257,0 4.17882,1.92345 -1.61369,0.43794 2.56513,2.36138 0.76477,0.35201 1.80034,-0.35203 2.56512,0 2.4396,1.12292 0.6187,2.88939 1.28255,4.72278 0.0531,0.14667 3.62766,3.44078 3.8477,3.54207 0.38237,0.17601 0.90017,-0.17599 1.28255,0 0.54079,0.24891 0.709,1.00468 1.28257,1.18069 0.81116,0.24892 1.80036,-0.35201 2.56514,0 1.96208,0.3128 2.22534,2.79536 3.84768,3.5421 1.02605,0.47226 2.82163,-0.47229 3.84767,0 0.54078,0.2489 0.7418,0.93177 1.28258,1.18067 0.3824,0.17601 0.85503,0 1.28255,0 0.85504,0 1.75398,-0.2489 2.56513,0 0.57359,0.17601 0.74179,0.93181 1.28258,1.18071 0.76476,0.35202 1.80035,-0.35201 2.56511,0 1.08156,0.49781 1.48358,1.86356 2.56512,2.36138 0.38239,0.17602 0.85505,0 1.28257,0 0.42752,0.39356 0.74178,0.93179 1.28256,1.1807 0.38239,0.17599 0.87698,-0.12449 1.28256,0 0.90691,0.27829 1.65822,0.90239 2.56514,1.18068 0.40557,0.1245 0.90017,-0.17599 1.28256,0 0.54077,0.24892 0.79886,0.84675 1.28255,1.18072 1.23317,0.85139 2.46897,1.72677 3.8477,2.36137 3.77433,1.73727 -1.68861,-2.73516 2.56511,1.18068"
       id="path5656"
       inkscape:connector-curvature="0" />
    <path
       style="fill:none;stroke:#000000;stroke-width:0.4001005px;stroke-linecap:butt;stroke-linejoin:miter;stroke-opacity:1"
       d="m 1.514488,72.052128 c 1.9395921,1.853452 3.73827,3.889942 5.8187766,5.560362 0.294759,0.236656 0.776711,-0.176032 1.106649,0 2.4468684,1.305451 0.343422,0.732879 1.106655,2.361679 0.4551764,0.971385 3.8809614,3.850029 4.4266054,4.723362 0.204617,0.327501 -0.116645,0.807427 0,1.180838 0.260838,0.834981 0.906595,1.507822 1.106648,2.361689 0.268405,1.145581 -0.349953,2.422281 0,3.54251 0.260843,0.834983 0.737768,1.574461 1.106651,2.36169 0.368885,0.78723 0.611743,1.657561 1.106654,2.361673 0.626015,0.890654 1.475535,1.57446 2.213302,2.361691 0.368883,0.393605 0.640048,0.931898 1.106649,1.180838 0.733407,0.39128 3.499094,-0.329908 4.42661,0 2.930695,1.04239 3.709211,3.68096 6.639905,4.72336 0.349955,0.1245 0.737768,0 1.106654,0 2.378602,0 3.432154,-0.3138 5.533256,1.18083 0.434063,0.30878 1.475534,0.78724 1.106651,1.18085 -0.222331,0.23724 -6.04836,-7.81788 1.106654,2.36169 0.695052,0.98885 2.867152,2.5762 3.319951,3.54252 0.16497,0.35205 -0.164967,0.82878 0,1.18083 0.295524,0.63067 2.737343,2.92085 3.319954,3.54254 0.368884,0.39361 1.475539,0.78721 1.106655,1.18082 -0.368888,0.39361 -1.628336,-1.18082 -1.106655,-1.18082 2.254133,0 2.901912,2.72905 4.426607,3.54251 0.659882,0.35207 1.553425,-0.35206 2.213303,0 0.466606,0.24894 0.737766,0.78722 1.10665,1.18083 0.737767,0 1.513396,-0.24893 2.213304,0 0.494909,0.17605 0.640044,0.93192 1.106651,1.18085 0.329941,0.17603 0.776713,-0.17603 1.10665,0 1.327985,0.7085 1.991974,2.83401 3.319955,3.54253 0.329941,0.17603 0.776713,-0.17604 1.106654,0 0.933209,0.49787 1.223484,2.00962 2.213301,2.36167 0.699909,0.24895 1.513396,-0.24895 2.213304,0 0.494908,0.17603 0.640044,0.93189 1.106651,1.18084 0.329941,0.17603 0.776712,-0.17603 1.10665,0 0.933213,0.49789 1.345175,1.74413 2.213304,2.3617 0.686315,0.48819 1.526987,0.6926 2.213301,1.18082 0.95493,0.67929 2.455566,2.62018 3.319955,3.54253 0.582614,0.62166 2.728911,3.22719 3.319954,3.54251 0.329942,0.17604 0.776713,-0.17603 1.106651,0 0.466606,0.24895 0.640048,0.93191 1.106654,1.18085 0.329937,0.17603 0.776708,-0.17604 1.106651,0 0.591042,0.31534 2.73734,2.92085 3.319954,3.54251 1.475534,1.57447 2.951071,3.14892 4.426612,4.72336 0.368878,0.39362 0.873343,0.68297 1.106648,1.18086 0.164969,0.35205 -0.164969,0.82878 0,1.18083 0.233304,0.49789 0.873343,0.68296 1.106648,1.18084 0.164969,0.35206 -0.164969,0.82878 0,1.18085 0.422676,0.90201 3.070172,2.74291 3.319962,3.54252 0.2333,0.74682 -0.23331,1.61485 0,2.36167 0.16839,0.53906 2.821563,3.01072 3.319943,3.54253 1.10666,1.18083 2.21331,2.36169 3.31996,3.54252 0.36888,0.39361 0.64006,0.9319 1.10664,1.18084 0.6599,0.35206 1.55344,-0.35205 2.21332,0 0.46661,0.24895 0.64003,0.93189 1.10664,1.18083 0.69555,0.3711 3.73106,-0.37107 4.42661,0 0.46661,0.24895 0.64005,0.93191 1.10665,1.18084 0.32993,0.17606 0.73776,0 1.10666,0 0.73776,0 1.51339,-0.24893 2.2133,0 0.4949,0.17606 0.73777,0.78724 1.10665,1.18085 0.36889,0.39362 0.73776,0.78723 1.10664,1.18084 1.47554,1.57446 2.95108,3.14891 4.42661,4.72337 0.3689,0.3936 1.47554,0.78722 1.10666,1.18084 -0.36889,0.3936 -1.47554,-1.57445 -1.10666,-1.18084 0.73777,0.78722 1.47554,1.57444 2.2133,2.36169 0.36888,0.39361 0.64004,0.93189 1.10665,1.18083 0.32994,0.17603 0.77671,-0.17603 1.10666,0 0.4666,0.24895 0.64005,0.93189 1.10666,1.18084 0.65987,0.35205 1.59944,-0.43668 2.21329,0 0.86813,0.61754 1.34518,1.74412 2.21331,2.36167 0.30692,0.21835 0.77672,-0.17602 1.10665,0 0.46661,0.24894 0.64004,0.93192 1.10665,1.18086 0.32993,0.17602 0.75669,-0.1245 1.10664,0 0.97701,0.34749 5.76422,2.91957 6.63992,3.54251 0.86812,0.61756 1.28009,1.86379 2.2133,2.36168 0.65987,0.35206 2.21331,-0.78722 2.21331,0 0,0.39362 -0.73777,0 -1.10666,0 1.10666,0 2.24634,-0.28639 3.31996,0 0.50609,0.13497 0.64005,0.9319 1.10664,1.18084 0.32994,0.17603 0.73777,0 1.10666,0 1.69289,0 2.59165,-0.12449 4.42661,1.18084 0.30692,0.21834 -0.16498,0.82879 0,1.18084 0.23329,0.49788 0.73775,0.78723 1.10665,1.18084 0.36888,0.39361 0.73776,0.78724 1.10664,1.18085 0.3689,0.39361 0.73778,0.78722 1.10665,1.18083 0.3689,0.39362 1.47554,0.78723 1.10665,1.18086 -0.36887,0.39361 -1.62833,-1.18086 -1.10665,-1.18086 0.82486,0 1.43079,0.90251 2.21332,1.18086 1.29763,0.46154 3.20789,-0.6502 4.4266,0 0.9332,0.49786 1.34516,1.74411 2.2133,2.36167 0.30694,0.21834 0.73776,0 1.10664,0 0.73778,0 1.47554,0 2.21331,0 0.36888,0 0.73778,0 1.10666,0 0.36887,0 0.77671,-0.17603 1.10664,0 0.46661,0.24894 1.47554,0.78723 1.10666,1.18083 -0.36889,0.39361 -1.60157,-1.35686 -1.10666,-1.18083 3.78863,-1.81384 3.6094,2.51609 5.53327,3.54253 0.65885,0.35151 4.60153,-0.33141 5.53326,0 8.01593,2.8511 -1.74477,-0.34045 3.31993,2.36167 0.47265,0.25215 5.0958,0 5.53327,0 1.32312,0 5.91764,0.25689 6.63991,0 0.78252,-0.27832 1.63135,-1.80459 2.21331,-1.18084 0.58162,0.62338 -0.74645,1.56865 -1.11966,2.35299"
       id="path5662"
       inkscape:connector-curvature="0" />
    <path
       style="opacity:1;fill:#ececec;fill-opacity:1;stroke:none;stroke-width:1.38257456;stroke-miterlimit:4;stroke-dasharray:none;stroke-opacity:1"
       d="m 188.38143,207.50495 c -1.21732,-0.55817 -3.52951,-1.0522 -5.13819,-1.09783 -1.60869,-0.0457 -3.21154,-0.88008 -3.56189,-1.85428 -0.43483,-1.2091 -2.20779,-1.77125 -5.58635,-1.77125 -2.72213,0 -5.25712,-0.53138 -5.63329,-1.18084 -0.37618,-0.64946 -1.88238,-1.18085 -3.34711,-1.18085 -1.46475,0 -4.15772,-1.55891 -5.98441,-3.46426 -2.2392,-2.33563 -4.96012,-3.72651 -8.35164,-4.2692 -2.76673,-0.44271 -5.29503,-1.2618 -5.61846,-1.82019 -0.32342,-0.5584 -4.42575,-2.93847 -9.11626,-5.28906 -4.69052,-2.35057 -10.76919,-6.56119 -13.50815,-9.35692 -3.86819,-3.94833 -6.33563,-5.38397 -11.05258,-6.43075 -5.5289,-1.22696 -12.187113,-5.87027 -12.187113,-8.49908 0,-2.05215 -6.893423,-11.57887 -11.491255,-15.88092 -9.093546,-8.50857 -17.279955,-15.15597 -21.11824,-17.1481 -2.092618,-1.0861 -5.096803,-3.05919 -6.67597,-4.38464 -1.579172,-1.32545 -4.317437,-2.74884 -6.085044,-3.1631 -3.437585,-0.80563 -11.046354,-8.22431 -14.108975,-13.75649 -1.395283,-2.52038 -2.707314,-3.36816 -5.221553,-3.37399 -1.846908,-0.004 -4.851996,-1.06354 -6.677969,-2.3539 -1.825977,-1.29037 -4.42896,-2.349621 -5.784411,-2.353903 -3.03717,-0.0095 -5.815048,-4.300834 -6.47842,-10.007823 -0.576384,-4.958647 -0.678351,-4.986937 10.447994,2.898824 3.677962,2.606746 7.358992,4.739539 8.180058,4.739539 0.821069,0 4.206722,2.580583 7.523675,5.734643 6.082258,5.78354 14.297678,10.79712 17.692488,10.79712 2.837601,0 10.101224,6.10838 21.293198,17.90661 14.327298,15.10338 35.005207,34.12674 39.059817,35.93444 1.8776,0.83711 4.05765,2.34978 4.84453,3.36149 0.7869,1.01172 2.04958,1.83949 2.80596,1.83949 0.75638,0 2.56288,0.98548 4.01443,2.18996 1.45156,1.20446 4.63119,2.86578 7.06581,3.69181 2.43464,0.82602 5.17361,2.14989 6.0866,2.94192 2.22537,1.93055 11.4338,6.52724 13.07587,6.52724 0.72083,0 1.31059,0.9804 1.31059,2.17866 0,2.82555 3.01627,5.6749 7.18228,6.78482 1.81994,0.48487 3.92654,1.54053 4.68134,2.34593 0.75478,0.80538 3.49867,1.847 6.09754,2.31471 2.59885,0.4677 8.21115,2.36124 12.47176,4.20784 6.0625,2.6276 7.02482,3.3466 4.4266,3.30734 -1.82598,-0.0276 -4.31594,-0.50684 -5.53326,-1.06501 z"
       id="path5664"
       inkscape:connector-curvature="0" />
    <path
       style="opacity:1;fill:#ececec;fill-opacity:1;stroke:none;stroke-width:0.48881391;stroke-miterlimit:4;stroke-dasharray:none;stroke-opacity:1"
       d="m 14.793577,86.845312 c -0.161396,-0.17488 -0.293444,-0.715239 -0.293444,-1.200801 0,-0.526586 -0.954345,-1.888395 -2.364962,-3.374713 -1.577583,-1.662245 -2.3059774,-2.736161 -2.1877964,-3.225612 0.1927504,-0.798277 -1.073928,-1.979948 -2.122386,-1.979948 -0.347666,0 -1.6730143,-1.040596 -2.9452127,-2.312435 l -2.3130879,-2.31243 1.3694137,0.276419 c 3.3927419,0.684841 5.6272099,2.55308 9.1955133,7.688368 1.037093,1.492528 2.33042,3.230332 2.874054,3.861784 0.960465,1.115621 0.96499,1.148098 0.159917,1.148098 -0.540397,0 -0.871988,0.304147 -0.953536,0.874617 -0.06877,0.481038 -0.257078,0.731531 -0.418473,0.556653 z"
       id="path5666"
       inkscape:connector-curvature="0" />
    <path
       style="fill:none;stroke:#000000;stroke-width:0.4001005px;stroke-linecap:butt;stroke-linejoin:miter;stroke-opacity:1"
       d="m 75.259223,82.773335 c -0.830399,1.772146 -0.818632,1.445145 -1.173781,3.339936 -0.02556,0.136524 0.04124,0.285465 0,0.417491 -0.09223,0.295212 -0.320529,0.533098 -0.391259,0.834981 -0.153437,0.654878 0.153435,1.432563 0,2.087439 -0.228535,0.975427 -0.857482,1.074945 -1.173783,2.087455 -0.124974,0.400042 0.120817,1.70069 0,2.087455 -0.05833,0.186712 -0.308773,0.241463 -0.391259,0.417491 -0.05832,0.124495 0,0.278328 0,0.417491 0,0.322439 0.07956,2.250237 0,2.504945 -0.09223,0.295213 -0.29904,0.539769 -0.391262,0.834967 -0.115489,0.369692 0.09697,1.673602 0,2.087454 0.235824,0.75563 -0.633816,0.77647 -0.78252,1.25247 -0.0701,0.22446 0,1.3165 0,1.66997 0,1.84739 0,0.94757 0,2.50495 0,0.2978 0.07222,1.77924 0,2.08743 -0.100032,0.42694 -0.291231,0.82555 -0.39126,1.25247 -0.06325,0.27002 0,0.55666 0,0.83498 0,0.69583 0,1.39165 0,2.08747 0,1.94828 0,3.89657 0,5.84485 0,2.22661 0,4.45324 0,6.67984 0,0.69581 0,1.39164 0,2.08746 0,0.27832 0,0.55665 0,0.83497 0,0.13918 0.05833,0.29303 0,0.41749 -0.08249,0.17603 -0.308777,0.24146 -0.391262,0.4175 -0.05832,0.12449 0,0.27832 0,0.41748 0,0.27834 0.06328,0.56497 0,0.83498 -0.07074,0.30188 -0.299037,0.53978 -0.391259,0.83499 -0.08513,0.27249 0,2.00579 0,2.50494 0,1.66997 0,3.33991 0,5.00988 0,1.11331 0,2.22663 0,3.33992 0,0.27834 0,0.55667 0,0.83499 0,0.13918 -0.05833,0.29301 0,0.41747 0.08248,0.17604 0.346526,0.22656 0.391259,0.41751 0.07255,0.30963 0,2.96313 0,3.33992 0,0.27832 -0.06327,0.56495 0,0.83497 0.141459,0.60378 0.598081,1.07954 0.782522,1.66998 0.07555,0.24183 0,1.30815 0,1.66996 0,1.66994 0,3.3399 0,5.00986 0,0.32244 -0.07956,2.25024 0,2.50495 0.09223,0.2952 0.299041,0.53977 0.39126,0.83499 0.07956,0.2547 0,2.18248 0,2.50493 0,1.80912 0,3.61825 0,5.42738 0,0.83498 0,1.66996 0,2.50495 0,0.13917 0,0.27831 0,0.41747 0,0.13918 -0.05832,0.29303 0,0.41749 0.575705,1.22861 0.39126,-0.64805 0.39126,1.25248"
       id="path5668"
       inkscape:connector-curvature="0" />
    <path
       style="fill:none;stroke:#000000;stroke-width:0.4001005px;stroke-linecap:butt;stroke-linejoin:miter;stroke-opacity:1"
       d="m 75.259222,82.773332 c 1.392211,0.337499 -0.746041,1.747812 -0.39126,2.504956 0.08249,0.176014 0.308779,0.241448 0.391263,0.417492 0.122954,0.262394 -0.122954,1.407553 0,1.669947 0.08248,0.176028 0.308775,0.241463 0.39126,0.417491 0.05954,0.126996 0,1.064449 0,1.252473 0,0.834983 0,1.669964 0,2.504946 0,0.165031 0.08355,1.909146 0,2.087455 -0.08249,0.176028 -0.260843,0.278312 -0.39126,0.417491 -0.130421,0.13918 -0.260842,0.278328 -0.391263,0.417476 -0.13042,0.139178 -0.308773,0.241462 -0.391259,0.417506 -0.05832,0.124496 0.13042,0.417476 0,0.417476 -0.0702,0 0.21528,-2.171307 -0.391259,0.417489 -0.08733,0.372739 0,1.604202 0,2.087456 0,1.391636 0,2.783264 0,4.174904 0,0.14215 0.07058,1.44402 0,1.66996 -0.09223,0.29521 -0.29904,0.53977 -0.391263,0.83498 -0.07593,0.24309 0,2.21769 0,2.50494 0,0.13919 0,0.27833 0,0.41749 0,0.13918 0.05832,0.29302 0,0.41749 -0.164968,0.35205 -0.617549,0.48293 -0.78252,0.83498 -0.05833,0.1245 0,0.27833 0,0.4175 0,0.13917 0,0.55664 0,0.41748 0,-0.27832 -0.184441,-1.03177 0,-0.83498 2.108975,2.25037 -0.138881,0.5386 0.39126,1.66996 0.08249,0.17604 0.308778,0.24146 0.39126,0.4175 0.67725,1.44529 -0.677247,-0.61033 0,0.83499 0.08249,0.176 0.308776,0.24144 0.391263,0.41747 0.05947,0.12701 0,1.38168 0,1.66997 0,0.69581 0,1.39163 0,2.08745 0,0.27832 0.08249,0.57092 0,0.83497 -0.09223,0.29522 -0.29904,0.53978 -0.391263,0.83499 -0.07358,0.23554 0,0.97813 0,1.25247 0,0.97414 0,1.94829 0,2.92243 0,2.78327 0,5.56653 0,8.3498 0,1.39163 0,2.78327 0,4.1749 0,0.18803 0.05954,1.12542 0,1.25247 -0.164968,0.35206 -0.617549,0.48293 -0.78252,0.83499 -0.116644,0.24894 0.116646,0.58603 0,0.83498 -0.08249,0.17603 -0.332935,0.23079 -0.391259,0.41747 -0.08249,0.26405 0.06328,0.56497 0,0.835 -0.0085,0.0361 -0.588537,0.93672 -0.391262,1.25245 0.260842,0.27833 0.521679,0.55666 0.782521,0.83499 0,0.13918 -0.05833,0.29303 0,0.41749 0.08249,0.17604 0.308775,0.24147 0.39126,0.41749 0.05832,0.1245 0,0.27833 0,0.4175 0,0.27831 -0.06325,0.56495 0,0.83498 0.07073,0.30188 0.299041,0.53976 0.39126,0.83498 0.04124,0.13199 0,0.27832 0,0.41749 0,0.27832 0,0.55665 0,0.83497 0,0.97416 0,1.94828 0,2.92245 0,3.47907 0,6.95817 0,10.43724 0,2.08745 0,4.17491 0,6.26236 0,0.18887 0.05214,2.39368 0,2.50494 -0.173392,0.37003 -0.936331,0.87241 -1.173779,1.25246 -1.139232,1.82341 0.173406,-0.13762 -0.391262,1.66997 -0.575706,1.8429 -0.391253,-1.51684 -0.391264,1.25248"
       id="path5672"
       inkscape:connector-curvature="0" />
    <path
       style="opacity:1;fill:#ececec;fill-opacity:1;stroke:none;stroke-width:0.34564364;stroke-miterlimit:4;stroke-dasharray:none;stroke-opacity:1"
       d="m 72.045395,120.4919 -1.220498,-1.12395 0.195922,-8.9791 c 0.150547,-6.8996 0.282738,-9.0835 0.570787,-9.42993 0.206174,-0.24796 0.444691,-1.11506 0.530039,-1.926892 0.08535,-0.811825 0.30019,-2.870914 0.477436,-4.575753 0.22709,-2.184339 0.475258,-3.307615 0.840361,-3.803746 0.286235,-0.388951 0.519972,-1.181653 0.522274,-1.771258 0.005,-1.297026 0.721545,-3.624823 0.919101,-2.986092 0.171351,0.554008 0.180171,0.660969 0.364236,4.417547 l 0.151365,3.089102 -0.784309,0.667314 -0.784308,0.667308 -0.210532,6.40361 c -0.16609,5.05171 -0.298413,6.50723 -0.626786,6.8944 -0.553647,0.65279 -0.526255,1.11634 0.171896,2.90891 0.555196,1.4255 0.57457,1.76675 0.34583,6.09128 l -0.242317,4.58119 z"
       id="path5674"
       inkscape:connector-curvature="0" />
    <path
       style="opacity:1;fill:#ececec;fill-opacity:1;stroke:none;stroke-width:0.34564364;stroke-miterlimit:4;stroke-dasharray:none;stroke-opacity:1"
       d="m 71.619214,163.1759 c -0.08242,-2.80602 -0.218329,-7.41305 -0.302031,-10.23786 -0.111868,-3.77561 -0.257573,-5.29658 -0.550087,-5.7422 -0.288067,-0.43885 -0.349901,-1.04206 -0.223988,-2.18519 0.103905,-0.94332 0.04101,-2.01876 -0.156221,-2.67129 -0.219041,-0.72468 -0.302236,-2.82877 -0.247216,-6.25211 l 0.08293,-5.15983 1.075981,1.24143 c 0.591791,0.6828 1.307654,1.3199 1.59081,1.4158 0.635516,0.21523 0.712238,1.76182 0.09984,2.01258 -0.228249,0.0935 -0.414995,0.35811 -0.414995,0.58811 0,0.23 -0.201043,1.08241 -0.446764,1.89423 -0.436797,1.44314 -0.432645,1.49644 0.186104,2.38944 0.348076,0.50237 0.689126,1.28147 0.757889,1.73136 0.06876,0.44988 0.174553,6.10578 0.235088,12.56867 l 0.110068,11.7507 -0.823782,0.87901 -0.823781,0.879 z"
       id="path5676"
       inkscape:connector-curvature="0" />
    <path
       style="fill:none;stroke:#000000;stroke-width:0.4001005px;stroke-linecap:butt;stroke-linejoin:miter;stroke-opacity:1"
       d="m 131.83155,144.03476 c 0.67429,1.0502 0.55332,1.31882 0.55332,2.36169 0,0.0984 -0.0413,0.20719 0,0.29521 0.0584,0.12449 0.21835,0.17074 0.27666,0.29521 0.0421,0.0899 0,0.75268 0,0.88563 0,0.5904 0,1.18084 0,1.77126 0,0.11668 -0.059,1.34997 0,1.47605 0.0492,0.10509 0.50409,0.48531 0.55333,0.59041 0.0413,0.0881 -0.0413,0.20721 0,0.29521 0.0582,0.1245 0.21834,0.17075 0.27667,0.29522 0.0413,0.088 0,0.1968 0,0.2952 0,0.21059 -0.0511,1.25814 0,1.47606 0.0707,0.30188 0.20593,0.58374 0.27665,0.88562 0.0448,0.19093 0,0.39362 0,0.59044 0,0.3936 0,0.78722 0,1.18082 0,0.0984 -0.0292,0.20188 0,0.29523 0.0651,0.20875 0.21147,0.38166 0.27666,0.59042 0.0544,0.1742 0,1.3111 0,1.47605 0,0.0984 -0.051,0.21333 0,0.29521 0.14464,0.23158 0.43668,0.34147 0.55334,0.59041 0.1237,0.26405 -0.1237,0.62159 0,0.88562 0.0582,0.1245 0.21833,0.17075 0.27667,0.29522 0.0413,0.0881 -0.0292,0.20186 0,0.29521 0.0651,0.20874 0.21144,0.38167 0.27665,0.59042 0.0562,0.18012 0,1.54328 0,1.77127 0,0.0984 -0.0413,0.20719 0,0.2952 0.0584,0.12449 0.23542,0.16319 0.27667,0.2952 0.0524,0.16795 0,1.19803 0,1.47606 0,1.08245 0,2.16489 0,3.24731 0,3.05051 0,6.10103 0,9.15151 0,2.26329 0,4.52657 0,6.78985 0,0.78722 0,1.57445 0,2.36168 0,0.24993 0.0496,1.02212 0,1.18082 -0.0413,0.132 -0.21834,0.17075 -0.27667,0.29523 -0.0413,0.0881 0,0.19681 0,0.2952 0,0.0984 0,0.19681 0,0.29522 0,0.49201 0,0.98403 0,1.47605 0,0.1968 0,0.3936 0,0.59043 0,0.0984 0.0413,0.20718 0,0.29519 -0.11667,0.24894 -0.47084,0.32637 -0.55332,0.59042 -0.0979,0.3137 0.098,0.86715 0,1.18085 -0.0653,0.20875 -0.21145,0.38167 -0.27666,0.59042 -0.0634,0.20305 0.0815,0.71146 0,0.88563 -0.0582,0.12449 -0.23542,0.16318 -0.27668,0.29521 -0.0875,0.28006 0,0.59042 0,0.88564 0,0.59041 0,1.18083 0,1.77124 0,1.86967 0,3.73933 0,5.609 0,0.39361 0,0.78724 0,1.18085 0,0.19679 0.0582,0.4037 0,0.59042 -0.31789,1.01764 -0.27666,0.21867 -0.27666,0.88562 0,0.68883 0,1.37766 0,2.06647 0,0.29522 0.10277,0.61155 0,0.88563 -0.65563,1.74898 -0.55332,0.14277 -0.55332,1.47604 0,0.19682 0,0.39363 0,0.59044 0,0.0984 0.0224,0.19974 0,0.29521 -0.25413,1.08466 -0.27666,0.62462 -0.27666,1.47606 0,0.19679 0.0582,0.40371 0,0.59041 -0.0413,0.13199 -0.18444,0.39362 -0.27667,0.2952 -0.0922,-0.0984 0.27667,-0.43437 0.27667,-0.2952 0,1.06811 -0.34272,0.21143 -0.55333,0.88563 -0.0467,0.14964 0,1.82514 0,2.06646 0,0.0984 0,0.19683 0,0.29522 0,0.0984 0.0922,0.29521 0,0.29521 -0.24143,0 0.58111,-1.53535 -0.27665,0.29521"
       id="path5684"
       inkscape:connector-curvature="0" />
    <path
       style="fill:none;stroke:#000000;stroke-width:0.4001005px;stroke-linecap:butt;stroke-linejoin:miter;stroke-opacity:1"
       d="m 131.83155,144.03476 c 0.18444,0.2952 0.40462,0.56828 0.55332,0.88563 0.0413,0.088 0,0.19681 0,0.29522 0,0.0984 0.0413,0.20719 0,0.29521 -0.0582,0.1245 -0.23541,0.16319 -0.27667,0.29521 -0.083,0.26568 0.083,0.61994 0,0.88563 -0.66798,2.13833 0.0798,-0.46543 -0.55331,0.88562 -0.14763,0.31506 0.14761,0.27537 0,0.59043 -0.0584,0.1245 -0.21835,0.17074 -0.27667,0.29521 -0.0441,0.094 0,1.2122 0,1.47606 0,0.26608 -0.0579,1.29024 0,1.47605 0.0651,0.20873 0.21145,0.38167 0.27667,0.5904 0.0582,0.18671 -0.0826,0.41441 0,0.59042 0.0582,0.12451 0.21833,0.17074 0.27665,0.29522 0.087,0.18555 -0.087,0.99531 0,1.18084 0.0584,0.1245 0.21835,0.17074 0.27666,0.29521 0.0413,0.088 0,0.19681 0,0.29522 0,0.1968 0,0.39361 0,0.59041 0,0.49201 0,0.98403 0,1.47606 0,0.0984 0,0.19681 0,0.29521 0,0.0984 -0.0413,0.2072 0,0.2952 0.0582,0.1245 0.21835,0.17074 0.27667,0.29522 0.0413,0.088 0,0.19679 0,0.29521 0,0.0984 0,0.1968 0,0.29519 0,0.49202 0,0.98405 0,1.47606 0,0.0984 -0.0413,0.2072 0,0.29521 0.11667,0.24895 0.47084,0.32637 0.55333,0.59042 0.0875,0.28006 0,0.59044 0,0.88563 0,0.59042 0,1.18085 0,1.77127 0,1.57445 0,3.14892 0,4.72336 0,0.49202 0,0.98403 0,1.47605 0,0.1968 0,0.39362 0,0.59043 0,0.0984 -0.0413,0.20718 0,0.2952 0.0582,0.12451 0.21833,0.17074 0.27666,0.2952 0.0916,0.19565 -0.0773,0.93343 0,1.18085 0.0651,0.20874 0.22665,0.37696 0.27665,0.59041 0.0448,0.19095 0,0.39362 0,0.59044 0,0.0984 -0.0413,0.20718 0,0.2952 0.0584,0.1245 0.21835,0.17074 0.27667,0.29522 0.041,0.0874 0,1.48572 0,1.77127 0,0.68881 0,1.37764 0,2.06645 0,0.0984 0,0.19681 0,0.29522 0,0.0984 -0.0413,0.20718 0,0.29521 0.11667,0.24894 0.43668,0.34146 0.55334,0.59041 0.0411,0.0878 0,1.64709 0,1.77127 0,0.28554 0.041,1.6837 0,1.77125 -0.0582,0.12451 -0.21835,0.17075 -0.27668,0.29522 -0.0413,0.088 0,0.1968 0,0.29521 0,0.24133 0.0467,1.91685 0,2.06646 -0.0413,0.13199 -0.21833,0.17075 -0.27666,0.29522 -0.0877,0.18725 0.0899,1.28427 0,1.47604 -0.0582,0.1245 -0.21832,0.17075 -0.27667,0.29521 -0.11067,0.23618 0.11068,0.64947 0,0.88565 -0.11667,0.24893 -0.40863,0.35884 -0.55331,0.59041 -0.0511,0.0819 0,0.19681 0,0.29521 0,0.16494 0.0544,1.30184 0,1.47605 -0.0651,0.20874 -0.21146,0.38168 -0.27667,0.59041 -0.052,0.16656 0,0.69165 0,0.88565 0,0.68881 0,1.37763 0,2.06647 0,0.27803 0.0524,1.30811 0,1.47605 -0.0413,0.13199 -0.21833,0.17073 -0.27666,0.2952 -0.0824,0.17602 0.0825,0.41439 0,0.59042 -0.0582,0.12451 -0.21834,0.17074 -0.27667,0.29522 -0.0824,0.17602 0.10229,0.42666 0,0.59041 -0.14464,0.23159 -0.43667,0.34148 -0.55331,0.59042 -0.0589,0.12543 0,1.22866 0,1.47605 0,1.27925 0,2.5585 0,3.83774 0,1.67286 0,3.34571 0,5.01856 0,0.68884 0,1.37766 0,2.06648 0,0.0984 0,0.1968 0,0.29521 0,0.0984 -0.0413,0.2072 0,0.29521 0.0582,0.12451 0.2354,0.16319 0.27665,0.29519 0.0421,0.13498 -0.0615,1.04949 0,1.18086 0.0584,0.12451 0.23543,0.16319 0.27666,0.29522 0.0491,0.15713 0,2.10829 0,2.36167 0,1.66568 -3e-5,1.4728 2e-5,2.9521"
       id="path5688"
       inkscape:connector-curvature="0" />
    <path
       style="opacity:1;fill:#ececec;fill-opacity:1;stroke:none;stroke-width:0.34564364;stroke-miterlimit:4;stroke-dasharray:none;stroke-opacity:1"
       d="m 133.96826,173.6464 c -0.19275,-0.93362 -0.40111,-4.08867 -0.46301,-7.01125 -0.0619,-2.92258 -0.23815,-5.77875 -0.39166,-6.34702 -0.15351,-0.56828 -0.39018,-2.16241 -0.52593,-3.54253 -0.32782,-3.33276 -0.48963,-4.2972 -0.83723,-4.99025 -0.42011,-0.83761 -0.3413,-3.03205 0.13293,-3.70107 0.37116,-0.5236 0.40619,-0.4145 0.40619,1.26505 0,1.08134 0.16137,2.10725 0.39197,2.4919 0.21557,0.35962 0.5324,2.18155 0.70405,4.04875 0.17164,1.8672 0.4155,3.6606 0.54191,3.98533 0.1264,0.32473 0.38801,0.98896 0.58135,1.47605 0.23278,0.58645 0.39667,3.10459 0.48513,7.45406 0.1145,5.63043 0.0758,6.56843 -0.27083,6.56843 -0.26726,0 -0.52328,-0.57571 -0.75487,-1.69745 z"
       id="path5690"
       inkscape:connector-curvature="0" />
    <path
       style="opacity:1;fill:#ececec;fill-opacity:1;stroke:none;stroke-width:0.34564364;stroke-miterlimit:4;stroke-dasharray:none;stroke-opacity:1"
       d="m 132.17075,211.58909 c -0.23226,-1.53114 -0.3182,-14.10472 -0.0964,-14.10459 0.43322,2.5e-4 1.10442,-3.36706 0.98287,-4.93095 -0.0709,-0.91137 0.0467,-2.25946 0.2732,-3.13173 0.21867,-0.84235 0.42604,-1.79723 0.46086,-2.12196 0.0383,-0.35764 0.30655,-0.62851 0.68027,-0.68702 0.61042,-0.0956 0.61495,-0.0688 0.42635,2.50929 -0.10486,1.43324 -0.27883,2.73873 -0.38662,2.9011 -0.46652,0.70271 -0.83247,4.88309 -0.95344,10.8912 -0.0797,3.95949 -0.24339,6.58393 -0.42253,6.77509 -0.16082,0.17159 -0.29241,0.80897 -0.29241,1.41638 0,1.4106 -0.47922,1.75511 -0.67213,0.48319 z"
       id="path5692"
       inkscape:connector-curvature="0" />
    <path
       style="fill:none;stroke:#000000;stroke-width:0.4001005px;stroke-linecap:butt;stroke-linejoin:miter;stroke-opacity:1"
       d="m 105.27192,144.62518 c 0,1.67286 0,3.34573 0,5.01858 0,0.26383 0.0441,1.38197 0,1.47605 -0.0582,0.1245 -0.21834,0.17073 -0.27667,0.29522 -0.042,0.0899 0,0.97698 0,1.18082 0,0.49203 0,0.98404 0,1.47606 0,0.1968 0.0582,0.40372 0,0.59043 -0.0651,0.20874 -0.21144,0.38167 -0.27666,0.59041 -0.0562,0.1801 0,1.54326 0,1.77127 0,0.0984 0.0413,0.2072 0,0.2952 -0.0582,0.1245 -0.23541,0.16318 -0.27667,0.29522 -0.0582,0.18671 0,0.39361 0,0.5904 0,0.0984 0.0512,0.21335 0,0.29522 -0.14463,0.2316 -0.43667,0.34147 -0.55332,0.59043 -0.15233,0.32509 0.10819,0.83468 0,1.18084 -0.0653,0.20876 -0.21145,0.38167 -0.27666,0.59042 -0.0537,0.17189 0,1.56813 0,1.77126 0,1.08243 0,2.16487 0,3.2473 0,1.08245 0,2.16489 0,3.24734 0,0.15768 -0.0396,1.39153 0,1.47602 0.0582,0.1245 0.23543,0.16319 0.27666,0.29521 0.0582,0.18672 0,0.39362 0,0.59044 0,0.0984 -0.0413,0.20718 0,0.2952 0.0582,0.12451 0.21834,0.17074 0.27667,0.2952 0.0413,0.0879 0,0.19682 0,0.29521 0,0.19683 0,0.39362 0,0.59044 0,0.49201 0,0.98403 0,1.47604 0,0.28554 -0.041,1.6837 0,1.77127 0.0582,0.12449 0.21833,0.17073 0.27665,0.2952 0.0413,0.0879 0,0.19682 0,0.2952 0,0.19682 -0.0582,0.40372 0,0.59043 0.0413,0.13199 0.21835,0.17073 0.27667,0.29522 0.0616,0.13137 -0.0421,1.04581 0,1.18082 0.0825,0.26406 0.43667,0.3415 0.55333,0.59044 0.0413,0.088 0,0.1968 0,0.29521 0,0.1968 0,0.39361 0,0.59042"
       id="path5698"
       inkscape:connector-curvature="0" />
    <path
       style="fill:none;stroke:#000000;stroke-width:0.4001005px;stroke-linecap:butt;stroke-linejoin:miter;stroke-opacity:1"
       d="m 105.27192,144.62518 c 0.27406,0.80104 0.27666,1.32534 0.27666,2.06648 0,0.0984 -0.0413,0.20719 0,0.29521 0.0582,0.1245 0.23542,0.1632 0.27665,0.29521 0.0584,0.1867 0,0.39362 0,0.59042 0,0.0984 -0.0413,0.20718 0,0.29521 0.0584,0.1245 0.21835,0.17074 0.27667,0.29521 0.0637,0.13591 0,1.46529 0,1.77126 0,0.29522 0,0.59041 0,0.88563 0,0.0984 0.0922,0.29522 0,0.29522 -0.0922,0 0,-0.39363 0,-0.29522 0,0.1968 -0.0582,0.40371 0,0.59042 0.0824,0.26404 0.43668,0.34147 0.55334,0.59042 0.0413,0.0881 0,0.1968 0,0.2952 0,0.0984 0,0.19682 0,0.29522 0,0.59042 0,1.18084 0,1.77127 0,0.98404 0,1.96807 0,2.9521 0,0.0701 -0.031,1.11466 0,1.18082 0.0582,0.12451 0.2354,0.16321 0.27666,0.29523 0.0582,0.18671 0,0.3936 0,0.59041 0,0.34171 -0.0618,1.21249 0,1.47607 0.05,0.21345 0.21145,0.38166 0.27665,0.59041 0.0596,0.19091 0,1.15372 0,1.47605 0,1.08244 0,2.16488 0,3.24731 0,0.68881 0,1.37765 0,2.06647 0,0.19681 0.0584,0.40372 0,0.59044 -0.66798,2.1383 0.0798,-0.46546 -0.55331,0.88562 -0.0413,0.0879 0,0.19679 0,0.2952 0,0.0984 0,0.19682 0,0.2952 0,0.59043 0,1.18085 0,1.77126 0,0.29521 0,0.59044 0,0.88564 0,0.0984 0,0.39362 0,0.29522 0,-0.19682 0,-0.78724 0,-0.59042 0,0.49201 0,0.98403 0,1.47604 0,0.0984 0.0922,0.29522 0,0.29522 -0.0922,0 0.0651,-0.36481 0,-0.29522 -1.07975,1.15213 0.064,0.15853 -0.27667,0.88565 -0.34187,0.72957 -0.27667,-0.10181 -0.27667,0.5904 0,0.1968 0,0.78724 0,0.59042 0,-1.93714 0.0506,1.36788 0,1.47606 -0.0582,0.1245 -0.23541,0.16319 -0.27667,0.29519 -0.0421,0.13497 0.0616,1.04949 0,1.18086 -0.2306,0.49215 -0.55331,0.13339 -0.55331,0.88563"
       id="path5700"
       inkscape:connector-curvature="0" />
    <path
       style="opacity:1;fill:#ececec;fill-opacity:1;stroke:none;stroke-width:0.34564364;stroke-miterlimit:4;stroke-dasharray:none;stroke-opacity:1"
       d="m 105.03952,177.93718 c -0.11555,-0.53331 -0.27605,-1.16894 -0.35667,-1.4125 -0.0806,-0.24354 -0.12443,-1.26039 -0.0974,-2.25967 0.0275,-1.01842 -0.14225,-2.41854 -0.38643,-3.18597 -0.23959,-0.75301 -0.35455,-1.64167 -0.25546,-1.9748 0.17554,-0.59016 0.19937,-0.58605 0.92923,0.16006 0.41198,0.42118 0.91066,0.76577 1.10814,0.76577 0.39421,0 0.29624,3.18051 -0.20746,6.73533 -0.31638,2.23287 -0.45583,2.4555 -0.73397,1.17178 z"
       id="path5702"
       inkscape:connector-curvature="0" />
    <path
       style="opacity:1;fill:#000000;fill-opacity:1;stroke:none;stroke-width:0.34564364;stroke-miterlimit:4;stroke-dasharray:none;stroke-opacity:1"
       d="m 105.83104,154.06443 c -0.49369,-0.65828 -0.72264,-2.26189 -0.40584,-2.84273 0.26693,-0.48945 0.28851,-0.48381 0.29631,0.0773 0.004,0.33285 0.14198,0.74771 0.30524,0.92189 0.16324,0.1742 0.25661,0.75442 0.20749,1.28941 -0.0718,0.78155 -0.15099,0.89044 -0.4032,0.55415 z"
       id="path5704"
       inkscape:connector-curvature="0" />
  </g>
</svg>
