<?xml version="1.0" encoding="UTF-8" standalone="no"?>
<svg
   xmlns:dc="http://purl.org/dc/elements/1.1/"
   xmlns:cc="http://creativecommons.org/ns#"
   xmlns:rdf="http://www.w3.org/1999/02/22-rdf-syntax-ns#"
   xmlns:svg="http://www.w3.org/2000/svg"
   xmlns="http://www.w3.org/2000/svg"
   xmlns:sodipodi="http://sodipodi.sourceforge.net/DTD/sodipodi-0.dtd"
   xmlns:inkscape="http://www.inkscape.org/namespaces/inkscape"
   viewBox="0 0 20 20"
   version="1.1"
   id="svg817"
   sodipodi:docname="arrow-doubleup.svg"
   inkscape:version="0.92.3 (2405546, 2018-03-11)">
  <metadata
     id="metadata823">
    <rdf:RDF>
      <cc:Work
         rdf:about="">
        <dc:format>image/svg+xml</dc:format>
        <dc:type
           rdf:resource="http://purl.org/dc/dcmitype/StillImage" />
        <dc:title></dc:title>
      </cc:Work>
    </rdf:RDF>
  </metadata>
  <defs
     id="defs821" />
  <sodipodi:namedview
     pagecolor="#ffffff"
     bordercolor="#666666"
     borderopacity="1"
     objecttolerance="10"
     gridtolerance="10"
     guidetolerance="10"
     inkscape:pageopacity="0"
     inkscape:pageshadow="2"
     inkscape:window-width="1858"
     inkscape:window-height="1057"
     id="namedview819"
     showgrid="false"
     inkscape:zoom="44.5"
     inkscape:cx="10"
     inkscape:cy="10"
     inkscape:window-x="54"
     inkscape:window-y="-8"
     inkscape:window-maximized="1"
     inkscape:current-layer="svg817" />
  <a
     id="a825"
     style="fill:#ffffff">
    <path
       sodipodi:nodetypes="sssssssssscccccccc"
       inkscape:connector-curvature="0"
       style="fill:#ffffff"
       id="path815"
       d="m 10,0 c 5.522851,0 9.999996,4.4771526 9.999996,10 0,5.522847 -4.477145,10 -9.999996,10 C 4.4771488,20 4.3411749e-6,15.522847 4.3411749e-6,10 4.3411749e-6,4.4771526 4.4771488,0 10,0 Z m 0,2 c -4.418281,0 -7.9999965,3.5817221 -7.9999965,8 0,4.418278 3.5817155,8 7.9999965,8 4.418281,0 7.999997,-3.581722 7.999997,-8 0,-4.4182779 -3.581716,-8 -7.999997,-8 z m 2,8 2.988764,5 L 5.0337078,14.977528 8,10 H 5 l 5,-5 5,5 z" />
  </a>
</svg>
